<svg xmlns="http://www.w3.org/2000/svg" width="572" height="522" viewBox="0 0 572 522">
  <defs>
    <style>
      .cls-1 {
        fill: #f6d21c;
      }

      .cls-1, .cls-2 {
        fill-rule: evenodd;
      }

      .cls-2 {
        fill: #ba131d;
      }
    </style>
  </defs>
  <path id="Заливка_цветом_4_копия_6" data-name="Заливка цветом 4 копия 6" class="cls-1" d="M194,52c4.761,3.016,13.785,10.775,15,17-5.792,3.882-9.1,11.524-16,14-3.968-5.866-12.4-9.184-14-17C184.445,64.157,191.054,56.557,194,52Zm184,0c5.055,3.234,13.924,11.052,16,17-5,1.884-11.611,9.332-14,14h-2L366,70l-3-1C362.1,67.386,375.508,55.652,378,52ZM175,71c5.4,1.776,14.875,10.991,16,17-6.511,2.253-10.4,9.6-15,14v-1c-2-1.242-15.5-14.17-15-16Zm37,0c5.181,1.73,14.233,10.841,16,16-2.763,1.973-13.879,15.016-17,14L197,87Zm147,0c5.4,1.776,14.875,10.991,16,17-5.278,2.323-10.344,8.814-14,13-2.522-.815-16.511-13.9-16-16Zm37,0c5.4,1.776,14.875,10.991,16,17-7.09,2.526-8.932,10.414-16,13-1.768-2.538-14.493-13.943-14-16ZM157,89c5.055,3.234,13.924,11.052,16,17-5.445,1.843-12.054,9.443-15,14l-1-1c-4.472-2.825-13.587-10.475-15-16C147.445,101.157,154.054,93.557,157,89Zm184,0c5.055,3.234,13.924,11.052,16,17-6.765,3.086-9.207,11.021-16,14-2-2.869-15.007-13.746-14-17Zm73,0c5.4,1.776,14.875,10.991,16,17l-14,14-1-1c-4.472-2.825-13.587-10.475-15-16C404.947,101.367,412.328,93.921,414,89ZM230,90h3c3.742,5.67,11.465,8.51,13,16-5.792,3.882-9.1,11.524-16,14-3.968-5.866-12.4-9.184-14-17C221.4,100.626,226.289,94.274,230,90Zm-92,18c5.4,1.776,14.875,10.991,16,17-7.09,2.526-8.932,10.414-16,13-1.768-2.538-14.493-13.943-14-16Zm110,0h3c3.753,5.955,11.456,9.156,14,16-5.866,3.968-9.184,12.4-17,14-3.882-5.792-11.524-9.1-14-16A52.949,52.949,0,0,0,248,108Zm74,0c6.889,2.407,10.25,10.126,16,14-0.631,1.754-.193.971-1,2-2.048,5.635-9.164,9.757-13,14-2.522-.815-16.511-13.9-16-16Zm111,0c5.328,1.775,14.186,10.7,16,16-5.792,3.882-9.1,11.524-16,14-1.768-2.538-14.493-13.943-14-16ZM120,126c5.055,3.234,13.924,11.052,16,17-5.554,2.172-12.129,13.263-14,14-0.365.144-14.808-11.775-16-14q-0.5-1-1-2Q112.5,133.5,120,126Zm147,0c5.245,1.873,14.872,11.086,16,17-5.792,3.882-9.1,11.524-16,14-2-2.869-15.007-13.746-14-17Zm37,0c4.678,2.962,14.524,11.249,16,17-6.693,3.065-9.28,11.048-16,14-2-2.869-15.007-13.746-14-17Zm147,0c5.4,1.776,14.875,10.991,16,17l-14,14-1-1c-4.472-2.825-13.587-10.475-15-16C442.049,138.082,448.324,130.5,451,126ZM101,145c5.328,1.775,14.186,10.7,16,16-5.792,3.882-9.1,11.524-16,14-1.767-2.538-14.493-13.943-14-16Zm184,0h3c3.712,5.49,11.5,8.719,13,16-4.9,4.454-9.172,11.752-16,14-1.768-2.538-14.493-13.943-14-16Zm184,0h3c3.882,5.792,11.524,9.1,14,16-5.792,3.882-9.1,11.524-16,14l-13-14h-2C454.133,159.441,466.847,148.152,469,145ZM83,163c3.678,1.223,15.214,12.823,16,17-5.445,1.843-12.054,9.443-15,14l-1-1-8-8C63.558,173.469,75.879,173.316,83,163Zm405,0c5.4,1.776,14.875,10.991,16,17-5,3.013-11.126,8.883-14,14l-1-1c-1.988-1.236-15.429-14.235-15-16Zm19,18c4.866,3.08,13.758,10.593,15,17-5.536,3.732-8.917,11.1-15,14-3.947-5.832-13.072-9.792-15-17C497.445,193.157,504.054,185.557,507,181ZM64,182h3c3.768,5.564,11.474,8.53,13,16-5.792,3.882-9.1,11.524-16,14-1.767-2.538-14.493-13.943-14-16ZM46,200c5.328,1.775,14.186,10.7,16,16-5.792,3.882-9.1,11.524-16,14-1.767-2.538-14.493-13.943-14-16Zm479,0c5.5,1.788,14.347,10.317,15,17-5.449,3.654-8.479,10.662-15,13-1.768-2.538-14.493-13.943-14-16ZM65,218c4.866,3.08,13.758,10.593,15,17L66,249l-1-1-9-9C45.83,228.772,58.065,228.02,65,218Zm442,0c4.866,3.08,13.758,10.593,15,17l-14,14-1-1c-4.821-3.079-13.018-10.31-15-16C497.445,230.157,504.054,222.557,507,218ZM82,237h3c3.882,5.792,11.524,9.1,14,16-5.792,3.882-9.1,11.524-16,14-3.968-5.866-12.4-9.184-14-17C73.722,247.689,80.105,241.966,82,237Zm406,0c5.328,1.775,14.186,10.7,16,16-5.792,3.882-9.1,11.524-16,14-1.768-2.538-14.493-13.943-14-16ZM101,255c5.4,1.776,14.875,10.991,16,17l-14,14-1-1c-4.821-3.079-13.018-10.31-15-16C92.035,266.192,97.889,259.782,101,255Zm369,0c4.678,2.962,14.524,11.249,16,17-5.445,1.843-12.054,9.443-15,14l-1-1c-4.821-3.079-13.018-10.31-15-16C460.445,267.157,467.054,259.557,470,255ZM119,274h3c3.882,5.792,11.524,9.1,14,16-5.792,3.882-9.1,11.524-16,14-2-2.864-15.007-13.75-14-17Zm332,0c4.956,1.625,14.708,10.809,16,16-5.792,3.882-9.1,11.524-16,14-3.968-5.866-12.4-9.184-14-17C442.189,285.251,448.208,278.324,451,274ZM138,292c5.4,1.776,14.875,10.991,16,17-6.685,2.739-8.4,11.234-16,13-1.923-2.751-13.743-12.441-14-13C122.8,306.392,136.249,294.56,138,292Zm295,0c5.277,1.766,14.818,11.175,16,17-7.228,2.569-9.47,10.835-16,14-2-2.869-15.007-13.746-14-17ZM157,310c5.055,3.234,13.924,11.052,16,17-7.228,2.569-9.47,10.835-16,14-3.947-5.832-13.072-9.792-15-17C147.445,322.157,154.054,314.557,157,310Zm257,0c5.4,1.776,14.875,10.991,16,17-5.792,3.882-9.1,11.524-16,14-2.707-7.482-11.882-9.3-14-17C404.947,322.367,412.328,314.921,414,310ZM175,329c5.328,1.775,14.186,10.7,16,16-5.792,3.882-9.1,11.524-16,14-1.768-2.538-14.493-13.943-14-16Zm221,0c5.4,1.776,14.875,10.991,16,17-7.09,2.526-8.932,10.414-16,13-1.768-2.538-14.493-13.943-14-16ZM193,347c5.4,1.776,14.875,10.991,16,17l-14,14-1-1c-4.472-2.825-13.587-10.475-15-16C183.947,359.367,191.328,351.921,193,347Zm185,0c5.055,3.234,13.924,11.052,16,17-5.445,1.843-12.054,9.443-15,14l-1-1-9-9C358.83,357.772,371.065,357.02,378,347ZM211,366h3c3.882,5.792,11.524,9.1,14,16-5.792,3.882-9.1,11.524-16,14-3.882-5.792-11.524-9.1-14-16h1C201.152,374.135,207.758,371.237,211,366Zm148,0c5.328,1.775,14.186,10.7,16,16-5.792,3.882-9.1,11.524-16,14-1.768-2.538-14.493-13.943-14-16ZM230,384c5.4,1.776,14.875,10.991,16,17l-14,14-1-1c-2-1.242-15.5-14.17-15-16Zm111,0c4.678,2.962,14.524,11.249,16,17-5.445,1.843-12.054,9.443-15,14l-1-1-8-8C321.558,394.469,333.879,394.316,341,384Zm-93,19h3c3.882,5.792,11.524,9.1,14,16-3.091,2.01-13.1,13.677-14,14-0.715.258-17.561-14.646-17-16Zm74,0c5.525,1.781,14.58,10.271,16,16-5.792,3.882-9.1,11.524-16,14-1.768-2.538-14.493-13.943-14-16Zm-55,18c5.328,1.775,14.186,10.7,16,16l-15,15v-1c-1.988-1.236-15.429-14.235-15-16Zm37,0c5.328,1.775,14.186,10.7,16,16-5.866,3.968-9.184,12.4-17,14l-13-13C289.019,434.588,301.961,423.983,304,421Zm-19,19h3c3.768,5.564,11.474,8.53,13,16l-14,14-1-1c-1.737-1.076-15.081-14.61-15-15Z"/>
  <path id="Заливка_цветом_10" data-name="Заливка цветом 10" class="cls-2" d="M243,66c37.375-.42,72.052,34.922,66,70-0.358,2.077,2.025,8.206,1,12-3.744,13.852-7.656,20.338-7,41,2.447,2.022,2.01,4.453,4,7,2.374,3.039,7.219,4.307,10,7,13.806,1.253,15.466-1.211,25-5a129.955,129.955,0,0,1,13-4h10c2.093-.742,4.185-3.973,6-5,8.273-4.68,16.3-9.366,24-14,2.593-1.56,6.047-.222,9-2,0.229-.138,3.441-4.712,4-5,6.6-3.4,13.1-3.072,20-6,8.852-3.755,19.988-9.789,29-13,2.422-.863,4.446.058,6-1,6.029-9.834,5.039-21.625,20-23,6.818-4.46,35.758.609,42,2,1.372,2.542,1.917,3.5,2,8-9.091,9.289-13.46,23.161-22,33-1.584,1.825-9.022,8.422-10,7-9.719,3.759-14.24-1.836-23-3-7.656,7.972-17.463,11.714-27,18-6.934,4.571-13.8,11.591-21,16-2.637,1.614-5.542.017-7,1-0.707.476-2.206,3.807-4,5l1,1a215.075,215.075,0,0,1,17,25c3.54,6.159,2.232,19.412,2,25-1.344,32.355-12.456,51.045-29,76-20.73,31.269-58.933,60.267-97,71-46.048,12.983-98.038-.107-128-20-89.764-59.6-91.914-201.942-19-278,13.774-14.368,38.215-32.042,57-41C223.633,67.837,237.246,69.658,243,66Zm-7,12c-6.249,4.676-18.89,5.814-26,10-25.736,15.15-49.343,36.834-65,62-55.678,89.494-19.087,207.134,67,244,7.774,3.329,24.411,6.022,30,7,92.145,16.121,150.445-53.742,176-109,8.96-19.373,3.742-73.69-22-74-6.009,7.259-29.966,14.867-40,19-11.8,4.86-25.941,12.561-37,19l-14,5c-7.128,4.273-17.247,11.149-26,13-4.99,1.055-9.783-1.966-16-2-1.605-2.3-2.142-1.51-3-5-0.8-1.18-.773-1.681-1-4,5.172-4.091,6.4-13.54,12-17,6.187-3.82,13.2-4.735,19-9a257.21,257.21,0,0,1,33-20c-1.021-.8-0.274-0.355-2-1-1.455-1.117-6-1.3-10-3-7.112-3.022-14.06-9.874-18-16-8.189-12.735.988-31.354,4-43-1.463-5.451,2.015-17.635,2-26-0.006-3-3.472-8.867-4-10-1.754-3.763-1.285-8.056-4-13C281.433,87.578,261.065,77.831,236,78Zm13,24c21.625-.3,38.706,26.442,30,47-3.441,8.125-10.045,11.465-16,17-7.08.164-15.188,0.613-20-2-12.333-6.7-23.01-33.834-12-51C235.1,106.615,242.717,106.305,249,102Zm-2,13c-0.771.682-2.232,1.311-3,2-6.686,5.757-5.676,15.732-5,24,2.806,2.209,2.012,3.776,4,7,2.31,3.746,7.863,5.008,11,8,5.47-1.965,11.089-3.381,13-9,5.223-6.492.219-16.9-2-25C258.4,119.418,257.5,115.161,247,115Zm240,20c-1.18.8-1.681,0.773-4,1-8.273,10.036-14.708,28.784,9,28,3.6-4.941,19.944-24.242,18-25v-2C504.864,137.666,495.49,135.117,487,135Zm-32,28c-10.425,7.69-28.8,7.086-38,16,2.875,4.321,2.067,10.624,7,13,7.8-9,27.373-14.133,35-26ZM175,186c16.156,0.833,18.067,8.534,26,17,1.27,21.921-5.079,33-22,39-20.583,7.3-36.459-24.609-27-38C156.5,189.843,164.886,192.621,175,186Zm100,76c9.37-.6,17.042-7.433,24-11,13.07-6.7,25.78-11.37,39-17,3.95-1.682,10.866-7.053,14-6,2.506-1.4,5.514-4.83,8-6,13.807-6.5,34.593-11.193,44-21-3.538-4.825-3.6-8.357-6-13-1.754.631-.971,0.193-2,1-9.11,2.347-18.134,9.872-25,15-7.255,5.419-20.781,8.465-28,14-10.646,8.163-22.861,12.888-35,20q-2.5,2.5-5,5c-6.838,3.672-23.9,9.774-27,16C275.248,260.073,275.4,259.946,275,262ZM173,198c-1.073.752-.946,0.6-3,1l-6,6c-3.259,4-2,17-2,17,2.986,3.651,6.14,7.145,12,8,1.69-1.142,4.9-1.066,8-1,4.3-6.175,8.581-9.3,9-20-3.671-3.253-3.552-7.13-9-9C179.774,198.209,177.2,198,173,198Zm218,71c1.267,11,5.183,23.5-2,32-8.315,9.843-32.046,16.749-42,3-7-9.673-4.805-16.66-4-29,2.561-2.066,2.08-4.206,4-7l11-9c14.868-1.441,25.188-1.55,30,10h3ZM164,314c-1.192-6.829-5.54-15.043-4-22,2.292-10.355,13.236-26.815,27-25,7.428,0.979,14.007,6.061,21,9,1.237,7.25,6.721,14.731,5,22-3.6,15.208-18.377,30.5-36,25C171.3,321.221,169.684,315.616,164,314Zm202-46c-1.073.752-.946,0.6-3,1-2.826,3.526-6.334,4.018-8,9-8.78,10.509,3.622,23.12,14,23,3.579-2.426,7.025-1.827,9-6,6.047-5.983,3.9-13.571,2-21C375.631,271.494,371.955,269.306,366,268ZM187,279c-1.9,1.521-3.59,1.789-7,2-2.01,3.679-6.3,5.383-7,10-1.337,1.992-1.1,6.507-1,10,3.023,2.69,2.856,6.164,7,8,4.248,3.491,10.275,1.23,15,0,1.656-2.574,3.729-4,5-7,3.984-4.827,1.181-17.231-3-20C193.51,280.351,189.882,280,187,279Zm116,33c20.075-.7,32.951,10.777,31,25,1.279,3.256.175,9.983-2,13-4.4,14.6-19.731,17.344-36,15-4.084-5.524-10.478-5.585-11-15-7.741-9.773,2.209-29.361,8-33C296.612,314.731,300.056,314.67,303,312Zm3,11c-7.5,7.924-15.4,6.985-10,23,0.8,2.373.559,5.337,5,7,3.537,3.318,6.225,2.355,12,2,5.766-7.11,10.935-10.141,10-22-2.445-2.989-3.234-6.258-7-8C313.612,323.233,310.223,323.006,306,323Zm-72,3c9.149,2.751,23.51,4.755,24,19,12.362,15.737-15.407,45.305-36,36-14.336-6.478-20.3-32.158-8-45,3.044-3.179,7.864-4.89,11-8C228.769,328,231.874,327.615,234,326Zm-4,13c-4.414,4.319-14.6,12.762-11,19,3.072,8.294,6.109,12.357,18,12a11.725,11.725,0,0,1,5-2c3.891-5.859,10.36-15.747,5-21l-3-5C238.717,341.254,236.263,339.343,230,339Z"/>
</svg>
