<svg xmlns="http://www.w3.org/2000/svg" width="572" height="522" viewBox="0 0 572 522">
  <defs>
    <style>
      .cls-1 {
        fill: #f6d21c;
      }

      .cls-1, .cls-2 {
        fill-rule: evenodd;
      }

      .cls-2 {
        fill: #c20e1a;
      }
    </style>
  </defs>
  <path id="Заливка_цветом_4_копия" data-name="Заливка цветом 4 копия" class="cls-1" d="M192.988,112.812c4.4,2.787,12.738,9.957,13.861,15.709-5.353,3.587-8.406,10.648-14.785,12.936-3.667-5.42-11.458-8.486-12.937-15.708C184.159,124.046,190.265,117.023,192.988,112.812Zm170.024,0c4.671,2.988,12.867,10.213,14.785,15.709-4.622,1.74-10.729,8.623-12.937,12.936h-1.848q-5.544-6-11.088-12.012l-2.773-.924C348.32,127.029,360.71,116.187,363.012,112.812ZM175.431,130.369c4.988,1.641,13.745,10.156,14.785,15.709-6.017,2.081-9.61,8.869-13.861,12.936V158.09c-1.852-1.148-14.322-13.093-13.861-14.785Zm34.19,0c4.787,1.6,13.152,10.018,14.784,14.784-2.552,1.824-12.824,13.876-15.708,12.937L195.76,145.153Zm135.834,0c4.988,1.641,13.745,10.156,14.785,15.709-4.877,2.146-9.558,8.144-12.937,12.012-2.331-.753-15.256-12.843-14.784-14.785Zm34.19,0c4.988,1.641,13.745,10.156,14.785,15.709-6.552,2.333-8.254,9.623-14.785,12.012-1.633-2.345-13.392-12.884-12.937-14.785ZM158.8,147c4.671,2.988,12.867,10.212,14.785,15.708-5.032,1.7-11.138,8.726-13.861,12.937l-0.924-.924c-4.132-2.61-12.555-9.679-13.86-14.785C149.969,158.235,156.076,151.212,158.8,147Zm170.024,0c4.671,2.988,12.867,10.212,14.785,15.708-6.251,2.852-8.508,10.184-14.785,12.937-1.846-2.651-13.867-12.7-12.936-15.709Zm67.456,0c4.988,1.641,13.744,10.156,14.784,15.708l-12.936,12.937-0.924-.924c-4.133-2.61-12.555-9.679-13.861-14.785C387.912,158.429,394.733,151.548,396.278,147Zm-170.024.924h2.772c3.457,5.239,10.594,7.863,12.012,14.784-5.352,3.587-8.405,10.649-14.784,12.937-3.667-5.42-11.459-8.487-12.937-15.709C218.3,157.745,222.824,151.875,226.254,147.926Zm-85.013,16.632c4.988,1.642,13.745,10.156,14.785,15.709-6.551,2.334-8.253,9.624-14.785,12.013-1.633-2.345-13.392-12.885-12.936-14.785Zm101.645,0h2.772c3.468,5.5,10.587,8.461,12.937,14.785-5.42,3.667-8.486,11.458-15.709,12.937-3.587-5.353-10.648-8.406-12.936-14.785A48.92,48.92,0,0,0,242.886,164.558Zm68.38,0c6.365,2.225,9.471,9.358,14.784,12.937-0.582,1.621-.178.9-0.924,1.848-1.892,5.207-8.467,9.016-12.012,12.937-2.331-.753-15.257-12.843-14.785-14.785Zm102.569,0c4.922,1.641,13.108,9.884,14.784,14.785-5.352,3.587-8.405,10.648-14.784,12.937C412.2,189.935,400.442,179.4,400.9,177.5ZM124.609,181.191c4.67,2.989,12.866,10.213,14.784,15.709-5.132,2.007-11.207,12.256-12.936,12.937-0.337.132-13.683-10.881-14.785-12.937l-0.924-1.848Zm135.834,0c4.847,1.731,13.743,10.245,14.785,15.709-5.353,3.587-8.406,10.648-14.785,12.937-1.846-2.651-13.867-12.7-12.936-15.709Zm34.19,0c4.322,2.737,13.421,10.4,14.785,15.709-6.185,2.832-8.576,10.209-14.785,12.937-1.846-2.651-13.867-12.7-12.937-15.709Zm135.834,0c4.988,1.641,13.745,10.156,14.785,15.709l-12.937,12.937-0.924-.924c-4.132-2.611-12.555-9.68-13.86-14.785C422.2,192.356,428,185.352,430.467,181.191ZM107.052,198.748c4.923,1.64,13.109,9.884,14.784,14.785-5.352,3.587-8.405,10.648-14.784,12.936-1.634-2.345-13.392-12.884-12.937-14.784Zm170.024,0h2.772c3.431,5.073,10.628,8.057,12.013,14.785-4.525,4.116-8.475,10.86-14.785,12.936-1.633-2.345-13.392-12.884-12.937-14.784Zm170.024,0h2.772c3.587,5.352,10.649,8.405,12.937,14.785-5.353,3.587-8.405,10.648-14.785,12.936q-6.006-6.466-12.012-12.936h-1.848C433.362,212.093,445.111,201.661,447.1,198.748ZM90.419,215.381c3.4,1.13,14.058,11.849,14.785,15.709-5.032,1.7-11.138,8.725-13.861,12.936l-0.924-.924-7.392-7.392C72.454,225.055,83.839,224.913,90.419,215.381Zm374.238,0c4.988,1.641,13.745,10.156,14.785,15.709-4.622,2.783-10.281,8.208-12.937,12.936l-0.924-.924c-1.837-1.142-14.257-13.154-13.861-14.785Zm17.557,16.633c4.5,2.846,12.713,9.788,13.86,15.708-5.115,3.449-8.24,10.259-13.86,12.937-3.647-5.389-12.079-9.049-13.861-15.709C473.385,243.248,479.491,236.224,482.214,232.014Zm-409.352.924h2.772c3.482,5.141,10.6,7.882,12.013,14.784-5.352,3.587-8.405,10.649-14.785,12.937-1.633-2.345-13.392-12.884-12.937-14.785ZM56.229,249.57c4.923,1.641,13.109,9.885,14.785,14.785-5.352,3.587-8.405,10.649-14.785,12.937-1.633-2.345-13.392-12.885-12.937-14.785Zm442.618,0c5.087,1.653,13.257,9.534,13.86,15.709-5.035,3.377-7.835,9.852-13.86,12.013-1.634-2.345-13.392-12.885-12.937-14.785ZM73.786,266.2c4.5,2.846,12.713,9.788,13.861,15.709L74.71,294.849l-0.924-.924-8.316-8.317C56.072,276.157,67.378,275.462,73.786,266.2Zm408.428,0c4.5,2.846,12.713,9.788,13.86,15.709l-12.936,12.937-0.924-.924c-4.455-2.846-12.03-9.527-13.861-14.785C473.385,277.437,479.491,270.414,482.214,266.2ZM89.495,283.76h2.772c3.587,5.353,10.648,8.406,12.937,14.785-5.353,3.587-8.406,10.648-14.785,12.936-3.667-5.42-11.458-8.486-12.937-15.708C81.845,293.637,87.744,288.349,89.495,283.76Zm375.162,0c4.923,1.64,13.109,9.884,14.785,14.785-5.353,3.587-8.406,10.648-14.785,12.936-1.633-2.345-13.392-12.884-12.937-14.784Zm-357.6,16.633c4.988,1.641,13.745,10.156,14.784,15.709L108.9,329.038l-0.924-.924c-4.455-2.845-12.03-9.527-13.861-14.784C98.768,310.734,104.177,304.812,107.052,300.393Zm340.972,0c4.323,2.737,13.421,10.4,14.785,15.709-5.032,1.7-11.138,8.726-13.861,12.936l-0.924-.924c-4.455-2.845-12.029-9.527-13.86-14.784C439.2,311.627,445.3,304.6,448.024,300.393ZM123.685,317.95h2.772c3.587,5.352,10.648,8.405,12.936,14.784-5.352,3.588-8.405,10.649-14.784,12.937-1.846-2.647-13.867-12.706-12.937-15.709Zm306.782,0c4.58,1.5,13.592,9.988,14.785,14.784-5.352,3.588-8.405,10.649-14.785,12.937-3.667-5.42-11.458-8.486-12.936-15.709C422.325,328.346,427.888,321.945,430.467,317.95ZM141.241,334.583c4.988,1.641,13.745,10.156,14.785,15.708-6.177,2.531-7.761,10.381-14.785,12.013-1.776-2.542-12.7-11.5-12.936-12.013C127.2,347.882,139.623,336.948,141.241,334.583Zm272.594,0c4.875,1.632,13.692,10.325,14.784,15.708-6.678,2.374-8.751,10.013-14.784,12.937-1.847-2.651-13.868-12.7-12.937-15.709ZM158.8,351.215c4.671,2.989,12.867,10.213,14.785,15.709-6.679,2.374-8.751,10.012-14.785,12.937-3.647-5.389-12.079-9.049-13.86-15.709C149.969,362.449,156.076,355.426,158.8,351.215Zm237.48,0c4.988,1.642,13.744,10.156,14.784,15.709-5.352,3.587-8.405,10.648-14.784,12.937-2.5-6.914-10.98-8.591-12.937-15.709C387.912,362.643,394.733,355.762,396.278,351.215ZM175.431,368.772c4.923,1.641,13.109,9.884,14.785,14.785-5.353,3.587-8.406,10.648-14.785,12.937-1.633-2.345-13.392-12.885-12.937-14.785Zm204.214,0c4.988,1.641,13.745,10.156,14.785,15.709-6.552,2.334-8.254,9.623-14.785,12.013-1.633-2.345-13.392-12.885-12.937-14.785ZM192.064,385.405c4.988,1.641,13.745,10.156,14.785,15.709L193.912,414.05l-0.924-.924c-4.133-2.61-12.555-9.679-13.861-14.784C183.7,396.833,190.519,389.952,192.064,385.405Zm170.948,0c4.671,2.989,12.867,10.213,14.785,15.709-5.032,1.7-11.138,8.726-13.861,12.936l-0.924-.924q-4.158-4.156-8.316-8.316C345.3,395.359,356.6,394.664,363.012,385.405ZM208.7,402.962h2.772c3.587,5.352,10.648,8.405,12.936,14.785-5.352,3.587-8.405,10.648-14.784,12.936-3.587-5.352-10.649-8.4-12.937-14.785h0.924C199.6,410.479,205.7,407.8,208.7,402.962Zm136.758,0c4.923,1.64,13.109,9.884,14.785,14.785-5.352,3.587-8.405,10.648-14.785,12.936-1.633-2.345-13.392-12.884-12.936-14.785ZM226.254,419.6c4.987,1.641,13.744,10.156,14.784,15.708L228.1,448.24l-0.924-.924c-1.853-1.148-14.323-13.094-13.861-14.785Zm102.568,0c4.323,2.737,13.421,10.395,14.785,15.708-5.032,1.7-11.138,8.726-13.861,12.937q-0.46-.462-0.924-0.924l-7.392-7.392C310.857,429.269,322.242,429.127,328.822,419.6Zm-85.936,17.557h2.772c3.587,5.352,10.649,8.405,12.937,14.784-2.856,1.857-12.108,12.638-12.937,12.937-0.66.238-16.227-13.534-15.708-14.785Zm68.38,0c5.1,1.645,13.472,9.49,14.784,14.784-5.352,3.587-8.405,10.649-14.784,12.937-1.634-2.345-13.392-12.885-12.937-14.785Zm-50.823,16.632c4.923,1.641,13.109,9.884,14.785,14.785L261.367,482.43v-0.924c-1.837-1.143-14.257-13.154-13.86-14.785Zm34.19,0c4.923,1.641,13.109,9.884,14.785,14.785-5.421,3.667-8.487,11.458-15.709,12.937L281.7,469.493C280.79,466.34,292.749,456.541,294.633,453.784Zm-17.557,17.557h2.772c3.482,5.142,10.6,7.883,12.013,14.785l-12.937,12.936L278,498.138c-1.605-.994-13.936-13.5-13.861-13.86Z"/>
  <path id="Заливка_цветом_5" data-name="Заливка цветом 5" class="cls-2" d="M122,8c11.978-.074,14.624,5.859,25,7V14c-0.961-1.418-.976-3.273-1-6h5c7.525,22.45,36.3,32.969,49,51,6.214,8.822,3.737,32.039,6,44h1V99c-3.727-5.726-.316-20.441,0-27h2c6.5,10.134,16.307,20.8,25,29,1.608,1.516,4.583,2.365,6,4,2.192,2.53,1.974,7.43,4,10,2.136-5.032,6.137-1.577,12-1,2.574-5.463,4-10.354,4-19h-1c-0.024,5.3.083,5.609-5,6l-3-6c-1.78-1.361-3.844-.093-5-2-1.692-2.792-5.782-35.172-5-39l3-10c4.823-3.074,12.982-11.9,18-13,8.091,10.5,29.233,3.3,31,21,3.424,6.321,5.965,36.08,0,45-2.641,3.95-6.958,4.306-11,7,5.816,0.756,5.425,3.484,5,10,2.316,1.843,3.263,2.28,4,6,6.845-.269,13.234,2.961,20,5l16,1c23.757,7.361,44.356,27.651,44,59-20.045,14.393-27.247,25.852-63,26l-1-4h-1c-2.263,14.844-16.843,7.494-22,16,6.529-.1,13.939-0.022,19,1,1.906,3.1,5.693,5.431,7,9,4.962,13.545-2.428,32.346,17,32,7.458-8.051,17.542-12.773,24-22,3.658-5.227,2.6-12.216,11-13,2.806,3.435,9.906,4.034,15,5,4.39,8.114,4.664,11.5,12,17-2.258,6.8-9.326,12.192-13,18-8.288,13.1-11.117,28.311-33,28-4.983-3.789-12.353-4.021-17-8-6.12-5.24-13.213-13.677-17-21-1.579-3.053-1.113-5.614-3-8v3c3.522,3.988,3.642,10.742,7,15,12.188,15.456,21.138,23.293,46,22l13-11c5.943-8.522,8.079-25.822,20-28-0.317,5.231-3.049,9.415-2,12,2.317,1.435,6.9-.4,10,1l5,6c5.7,2.5,18.586-3.662,28,0a18.324,18.324,0,0,1,1,6c-3.426,1.7-10.407,1.768-14,4-5.324,3.308-10.088,9.18-15,13v1c3.529,0.213,11.385.409,13,3,2.922,3.251,2.177,11.789,2,18h-2c-5.65,3.124-21.02-2.439-30,0-23.3,6.328-40.906,20.034-69,6v1c3.156,2.027,5.959,6.328,9,8,15.252,8.387,40.365-1.527,52-4,13.276-2.822,33.072.877,34,11-1.262,1.359-1.365,1.768-2,4-2.524.787-3.324,3.341-6,3-2.459-.314-6.592-5.161-9-6H375c-9.977,1.893-26.921,2.826-37,4v1h5c12.185,7.227,53.238-13.155,56,8-3.77,3.158-3.163,13.2-5,18-4.59,2.144-15.275,3.786-18,8l-3,13c-0.435.816-15.071,14.651-16,15-8.305,6.745-28.086-6.876-33-11v2c6.305,4.706,8.133,16.142,17,18-1.144,5.763-4.6,4.882-8,8-1.754-.631-0.971-0.193-2-1-2.988-3.167-3.452-7.2-6-11-8.075-12.047-20.113-23.549-31-33-3.8-3.3-5.558-8.079-10-11v1c5.224,3.675,8.155,9.891,12,15,9.073,12.056,25.973,22.465,27,42-11.3-.3-19.21,2.191-28,5-6.353,2.03-14.866-.946-18,4h13c3.088,4.73,6.611,6.268,7,14l-1,1a23.654,23.654,0,0,0-8,1c-1.976,6.032-2.973,11.953-9,14-4.692,4.25-13.954,4.15-23,4a18.324,18.324,0,0,1-1-6c6.372-2.6,9.991-7.2,11-15-0.777-1.194-1.2-4.815-2-6-1.637-4.128-4.056-6.815-10-7-5.421-3.323-13.393-1.909-20-4-5.26-1.665-27.078-21.676-28-26,18.733-9.5,39.6-45.4,29-75h-1v20l-6,18c-6.191,9.953-27.612,26.622-43,27a15.7,15.7,0,0,1-1-5c7.048-2.081,19.18-9.214,23-15h-1c-5.855,7.428-23.051,11.15-35,12-2.943-3.032-6.425-4.492-8-9-3.368-4.113-2.936-8.149-2-13,11.419-2.871,21.674-11.591,28-20,1.719-2.285,5.176-3.819,7-6,4.956-5.925,16.258-25.762,19-33,2.822-7.451.98-13.143,3-22,5.835-25.583,7.631-56.062,13-81h2c0.3,7.077,3.318,15.81,7,20-0.593-29.169-12.368-61.656-7-91h-3c-7.491,4.749-16.857-2.983-21-5-19.683-9.582-24.725-22.6-30-46-1.415-6.276,2.117-11.71,1-16h-1c-0.3,4.142-.225,6.81-3,10-1.073.752-.946,0.6-3,1-1.66-5.124-6.228-8.492-8-13-6-15.256-2.083-26.482-12-39C145.905,24.043,122.754,22.749,122,8ZM284,59c0.466,2.747,2.088,1.533,6,3l-1-3h-5Zm-78,45c1.66,1.116,1.069,1.77,2,0h-2Zm2,7c0.886,2.178,1.324,3.607,3,5C210.114,113.822,209.676,112.393,208,111Zm42,8v12c9.359,1.715,14.018,6.542,22,8,1.359-1.262,1.768-1.365,4-2v-1c-12.058-1.915-23.06-5.262-25-17h-1Zm27,5v-4c-2.076.372-1.924,0.242-3,1,1.43,2.085.627,3.563,3,5,1.008-.693,4-1.287,5-2h-5Zm27,11a10.925,10.925,0,0,1-2,3,13.747,13.747,0,0,0,5,7C306.1,142.187,305.648,137.229,304,135Zm5,26c-1.23,15.022-14.424,18.946-15,36l1,1c11.648,1.535,15.537-3.539,24-6,7.925-2.305,21.125.827,27-3H328c0.652-6.336,4.2-6.813,6-12C323.968,173.6,319.916,162.9,309,161Zm-34,57c1.224,2.057,1.649,2.912,4,4l1-1v-1C276.812,219.494,277.08,219.128,275,218Zm30,40v2h1v-2h-1Zm-41,27v2h1v-2h-1Zm6,0v5a14.124,14.124,0,0,1-4,1c-0.631-1.754-.193-0.971-1-2v6c2.858,4.2,2.879,10.086,5,15,7.083,16.408,16.8,36,35,41-6.048-6.237-15.072-10.758-20-18-8.966-13.177-9.3-28.778-13-48h-2Zm65,67c1.021,0.8.274,0.355,2,1C335.979,352.2,336.726,352.645,335,352Z"/>
</svg>
