<svg xmlns="http://www.w3.org/2000/svg" width="572" height="522" viewBox="0 0 572 522">
  <defs>
    <style>
      .cls-1 {
        fill: #f6d21c;
      }

      .cls-1, .cls-2 {
        fill-rule: evenodd;
      }

      .cls-2 {
        fill: #c00e1a;
      }
    </style>
  </defs>
  <path id="Заливка_цветом_4_копия_2" data-name="Заливка цветом 4 копия 2" class="cls-1" d="M187,80c4.761,3.016,13.785,10.775,15,17-5.792,3.882-9.1,11.524-16,14-3.968-5.866-12.4-9.184-14-17C177.445,92.157,184.054,84.557,187,80Zm184,0c5.055,3.234,13.924,11.052,16,17-5,1.884-11.611,9.332-14,14h-2L359,98l-3-1C355.1,95.386,368.508,83.652,371,80ZM168,99c5.4,1.776,14.875,10.991,16,17-6.511,2.253-10.4,9.6-15,14v-1c-2-1.242-15.5-14.17-15-16Zm37,0c5.181,1.73,14.233,10.841,16,16-2.763,1.973-13.879,15.016-17,14l-14-14Zm147,0c5.4,1.776,14.875,10.991,16,17-5.278,2.323-10.344,8.814-14,13-2.522-.815-16.511-13.9-16-16Zm37,0c5.4,1.776,14.875,10.991,16,17-7.09,2.526-8.932,10.414-16,13-1.768-2.538-14.493-13.943-14-16ZM150,117c5.055,3.234,13.924,11.052,16,17-5.445,1.843-12.054,9.443-15,14l-1-1c-4.472-2.825-13.587-10.475-15-16C140.445,129.157,147.054,121.557,150,117Zm184,0c5.055,3.234,13.924,11.052,16,17-6.765,3.086-9.207,11.021-16,14-2-2.869-15.007-13.746-14-17Zm73,0c5.4,1.776,14.875,10.991,16,17l-14,14-1-1c-4.472-2.825-13.587-10.475-15-16C397.947,129.367,405.328,121.921,407,117Zm-184,1h3c3.742,5.67,11.465,8.509,13,16-5.792,3.882-9.1,11.524-16,14-3.968-5.866-12.4-9.184-14-17C214.4,128.626,219.289,122.274,223,118Zm-92,18c5.4,1.776,14.875,10.991,16,17-7.09,2.526-8.932,10.414-16,13-1.768-2.538-14.493-13.943-14-16Zm110,0h3c3.753,5.955,11.456,9.156,14,16-5.866,3.968-9.184,12.4-17,14-3.882-5.792-11.524-9.1-14-16A52.949,52.949,0,0,0,241,136Zm74,0c6.889,2.407,10.25,10.126,16,14-0.631,1.754-.193.971-1,2-2.048,5.635-9.164,9.757-13,14-2.522-.815-16.511-13.9-16-16Zm111,0c5.328,1.775,14.186,10.7,16,16-5.792,3.882-9.1,11.524-16,14-1.768-2.538-14.493-13.943-14-16ZM113,154c5.055,3.234,13.924,11.052,16,17-5.554,2.172-12.129,13.263-14,14-0.365.144-14.808-11.775-16-14l-1-2Q105.5,161.5,113,154Zm147,0c5.245,1.873,14.872,11.086,16,17-5.792,3.882-9.1,11.524-16,14-2-2.869-15.007-13.746-14-17Zm37,0c4.678,2.962,14.524,11.249,16,17-6.693,3.065-9.28,11.048-16,14-2-2.869-15.007-13.746-14-17Zm147,0c5.4,1.776,14.875,10.991,16,17l-14,14-1-1c-4.472-2.825-13.587-10.475-15-16C435.049,166.082,441.324,158.5,444,154ZM94,173c5.328,1.775,14.186,10.7,16,16-5.792,3.882-9.1,11.524-16,14-1.767-2.538-14.493-13.943-14-16Zm184,0h3c3.712,5.49,11.5,8.719,13,16-4.9,4.454-9.172,11.752-16,14-1.768-2.538-14.493-13.943-14-16Zm184,0h3c3.882,5.792,11.524,9.1,14,16-5.792,3.882-9.1,11.524-16,14l-13-14h-2C447.133,187.441,459.847,176.152,462,173ZM76,191c3.678,1.223,15.214,12.823,16,17-5.445,1.843-12.054,9.443-15,14l-1-1-8-8C56.558,201.469,68.879,201.316,76,191Zm405,0c5.4,1.776,14.875,10.991,16,17-5,3.013-11.126,8.883-14,14l-1-1c-1.988-1.236-15.429-14.235-15-16Zm19,18c4.866,3.08,13.758,10.593,15,17-5.536,3.732-8.917,11.1-15,14-3.947-5.832-13.072-9.792-15-17C490.445,221.157,497.054,213.557,500,209ZM57,210h3c3.768,5.564,11.474,8.53,13,16-5.792,3.882-9.1,11.524-16,14-1.767-2.538-14.493-13.943-14-16ZM39,228c5.328,1.775,14.186,10.7,16,16-5.792,3.882-9.1,11.524-16,14-1.767-2.538-14.493-13.943-14-16Zm479,0c5.5,1.788,14.347,10.317,15,17-5.449,3.654-8.479,10.662-15,13-1.768-2.538-14.493-13.943-14-16ZM58,246c4.866,3.08,13.758,10.593,15,17L59,277l-1-1-9-9C38.83,256.772,51.065,256.02,58,246Zm442,0c4.866,3.08,13.758,10.593,15,17l-14,14-1-1c-4.821-3.079-13.018-10.31-15-16C490.445,258.157,497.054,250.557,500,246ZM75,265h3c3.882,5.792,11.524,9.1,14,16-5.792,3.882-9.1,11.524-16,14-3.968-5.866-12.4-9.184-14-17C66.722,275.689,73.105,269.966,75,265Zm406,0c5.328,1.775,14.186,10.7,16,16-5.792,3.882-9.1,11.524-16,14-1.768-2.538-14.493-13.943-14-16ZM94,283c5.4,1.776,14.875,10.991,16,17L96,314l-1-1c-4.821-3.079-13.018-10.31-15-16C85.035,294.192,90.889,287.782,94,283Zm369,0c4.678,2.962,14.524,11.249,16,17-5.445,1.843-12.054,9.443-15,14l-1-1c-4.821-3.079-13.018-10.31-15-16C453.445,295.157,460.054,287.557,463,283ZM112,302h3c3.882,5.792,11.524,9.1,14,16-5.792,3.882-9.1,11.524-16,14-2-2.864-15.007-13.75-14-17Zm332,0c4.956,1.625,14.708,10.809,16,16-5.792,3.882-9.1,11.524-16,14-3.968-5.866-12.4-9.184-14-17C435.189,313.251,441.208,306.324,444,302ZM131,320c5.4,1.776,14.875,10.991,16,17-6.685,2.739-8.4,11.234-16,13-1.923-2.751-13.743-12.441-14-13C115.8,334.392,129.249,322.56,131,320Zm295,0c5.277,1.766,14.818,11.175,16,17-7.228,2.569-9.47,10.835-16,14-2-2.869-15.007-13.746-14-17ZM150,338c5.055,3.234,13.924,11.052,16,17-7.228,2.569-9.47,10.835-16,14-3.947-5.832-13.072-9.792-15-17C140.445,350.157,147.054,342.557,150,338Zm257,0c5.4,1.776,14.875,10.991,16,17-5.792,3.882-9.1,11.524-16,14-2.707-7.482-11.882-9.3-14-17C397.947,350.367,405.328,342.921,407,338ZM168,357c5.328,1.775,14.186,10.7,16,16-5.792,3.882-9.1,11.524-16,14-1.768-2.538-14.493-13.943-14-16Zm221,0c5.4,1.776,14.875,10.991,16,17-7.09,2.526-8.932,10.414-16,13-1.768-2.538-14.493-13.943-14-16ZM186,375c5.4,1.776,14.875,10.991,16,17l-14,14-1-1c-4.472-2.825-13.587-10.475-15-16C176.947,387.367,184.328,379.921,186,375Zm185,0c5.055,3.234,13.924,11.052,16,17-5.445,1.843-12.054,9.443-15,14l-1-1-9-9C351.83,385.772,364.065,385.02,371,375ZM204,394h3c3.882,5.792,11.524,9.1,14,16-5.792,3.882-9.1,11.524-16,14-3.882-5.792-11.524-9.1-14-16h1C194.152,402.135,200.758,399.237,204,394Zm148,0c5.328,1.775,14.186,10.7,16,16-5.792,3.882-9.1,11.524-16,14-1.768-2.538-14.493-13.943-14-16ZM223,412c5.4,1.776,14.875,10.991,16,17l-14,14-1-1c-2-1.242-15.5-14.17-15-16Zm111,0c4.678,2.962,14.524,11.249,16,17-5.445,1.843-12.054,9.443-15,14l-1-1-8-8C314.558,422.469,326.879,422.316,334,412Zm-93,19h3c3.882,5.792,11.524,9.1,14,16-3.091,2.01-13.1,13.677-14,14-0.715.258-17.561-14.646-17-16Zm74,0c5.525,1.781,14.58,10.271,16,16-5.792,3.882-9.1,11.524-16,14-1.768-2.538-14.493-13.943-14-16Zm-55,18c5.328,1.775,14.186,10.7,16,16l-15,15v-1c-1.988-1.236-15.429-14.235-15-16Zm37,0c5.328,1.775,14.186,10.7,16,16-5.866,3.968-9.184,12.4-17,14l-13-13C282.019,462.588,294.961,451.983,297,449Zm-19,19h3c3.768,5.564,11.474,8.53,13,16l-14,14-1-1c-1.737-1.076-15.081-14.61-15-15Z"/>
  <path id="Заливка_цветом_6" data-name="Заливка цветом 6" class="cls-2" d="M449,123c-0.443,14.718-12.014,27.217-17,38-0.388.84,1.758,1.946,1,4a45.8,45.8,0,0,1-4,7l-4,1c-2.219,2.933-2.5,10.15-5,13-10.61,12.081-23.456,31.709-42,35-0.74,10.035-13.1,28.795-18,40h-2v-6c5.785-6.938,10.9-31.912,15-42,3.5-8.618,10.352-18.481,14-27v-5c4.467-9.97,12.932-21.925,17-32q0.5-3.5,1-7c1.084-2.046,4.912-4.955,6-7q0.5-3.5,1-7l6-6c2.275-3.475,1.842-7.223,4-11,4.871-8.526,13.007-17.6,18-26a242.858,242.858,0,0,1,18-27q1-3,2-6c1.393-1.6,4.6-2.406,6-4,2.46-2.806,2.707-7.081,5-10,4.574-5.823,12.779-9.839,15-18h-1v2c-10.671,6.923-23.148,25.382-31,36-10.364,14.014-21.293,29.035-32,43-1.6,2.086-.7,4.478-2,7-2.14,4.152-6.855,7.83-9,12q-0.5,3-1,6l-4,3c-2.964,4.223-3.409,9.306-6,14-1.393,2.524-4.732,5.139-6,8-7.063,15.938-14.134,32.015-22,47-3.247,6.186-.858,14.646-9,16l-1-1c-0.6-9.545-2.912-20.348-4-26-2.577-13.384,11.757-40.926,16-49,5.21-9.914,7.639-20.074,14-29,11.156-15.655,23.767-30.293,35-46,2.27-3.173,7.486-4.109,10-7,3.374-3.88,4.951-8.9,9-12,3.488-2.674,7.885-3.976,11-7,17.218-16.714,37.362-35.2,71-35l1,1V5c-32.962,7.136-45.937,46.686-59,74q-0.5,4-1,8c-1.944,4.482-6.02,10.357-8,15q-0.5,3-1,6c-5.814,10.24-22.373,13.459-27,25h1C433.925,129.028,442.585,123.91,449,123ZM199,429c-0.223-13.473-8.043-37.833-12-50-6.834-21.015-6.975-41.775-13-63-2.276-8.018-8.587-24.014-7-31-4.787-12.882-5.955-27.532-10-42-2.114-7.561-4.9-13.975-5-24,5.295-.389,7.387-2.813,11-4h7c7.835-2.111,17.126-4.635,25-8,19.786-8.456,32.417-22.991,56-29,8.848-2.254,16.316,3.658,24,5,16.566-24.234,42.515-14.636,72-14,0.979,2.67,1.282,1.718,2,5-0.682.771-1.311,2.232-2,3-9.827,6.378-49.4-10.979-59,6-9.331,9.3-.553,38.641,3,52l33,140h1c16.012-20.008,63.659-4.757,86-10,8.812-2.068,19.284,1.195,26-3,0.961-1.418.976-3.273,1-6-7.121-10.8-4.61-23.62-9-39-6.317-22.131-9.677-45.442-16-69-2.688-10.014-6.772-23.6-6-34,2.464-1.533,2.276-2.291,6-3l1,1c0.278,13.239,5.868,26.555,9,38,4.688,17.132,4.886,33.218,10,50,4.328,14.2,7.67,31.583,12,46q0.5,5.5,1,11c1.3,4.076,3.484,8.2,4,14l-1,1c-7.4.229-13.359,2.6-19,4-7.1,1.759-24.079,2.184-30,3-14.6,2.012-27.957-8.021-44-4-7.578,1.9-18.016,3.926-24,8-4.943,3.365-4.126,9.007-12,10-7.471-7.707-25.526-4.735-36-1-13.225,4.716-22.216,13.29-33,20C236.95,420.742,217.344,425.525,199,429Zm55-242c-5.325,3.25-13.834,1.642-19,5-6.585,4.281-12.686,10.581-19,15-10.413,7.288-38.678,15.833-53,19v7c3.346,5.072,2.164,11.094,4,18,3.221,12.116,5.281,24.883,9,38,9.619,33.929,13.538,68.85,25,101,3.273,9.18,2.436,18.14,5,25,7.379-2.767,16.237-5.672,23-8,6.277-2.161,12.805-.648,18-4,20.949-13.518,33.628-28.7,67-25v-2c2.348-4.379-7.86-27.889-8-35,1.335-2.325-7.308-33.485-9-39-5.907-19.253-6.259-37.4-12-57-4.654-15.888-9.772-34.05-14-50C265.315,191.605,262.873,187.416,254,187ZM191,442c9.074-1.073,22.163-5.546,30-9a8.052,8.052,0,0,1,6,0c8.066-3.5,17.407-5.664,25-10,1.991-1.137,4.167-4.659,6-6,2.2-1.608,4.611-.6,7-2,13-7.61,20.122-13.76,39-17,2.469-.424,3.841,1.768,9,2,2.094,4.017,6.371,10.387,12,11,2.626-1.763,5.333-1.069,7-4,1.049-1.71.089-4.389,1-7,1.512-4.332,7.288-9.816,11-12,13.449-7.912,49.847.747,60,1,21.419,0.534,39.921-6.942,58-11v-3c-5.681-9.433-4.776-23.771-8-35-6.258-21.8-10.375-53.6-18-79-5.971-19.891-13.929-45.561-13-65,1.766-.961,1.68-1.257,4-2v1c7.8,10.758,7.793,37.327,12,52,13.044,45.49,23.57,96.013,33,141-8.4.171-17.248,3.768-24,6-6.031,1.993-10.07-.221-16,2-10.855,4.065-25.014,6.063-36,10-5.554,1.99-15.92,1.557-24,4-20.833,6.3-46.625,9.251-67,17h-8c-26.115,8.153-49.7,10.725-77,18-10.022,2.671-22.064,6.591-33,8-1.3-2.418-1.8-2.833-2-7-3.994-6.327-2.75-14.786-5-23-4.509-16.461-7.17-33.289-12-51-5.906-21.657-10.51-46.52-17-68-2.459-8.139-1.531-14.737-4-23-4.323-14.469-10.1-31.736-11-48,2.281-1.225,2.251-1.638,6-2l1,1c0.252,16.592,9.483,43.854,14,59,5.941,19.918,5.949,37.58,12,59,5.746,20.341,8.625,42.692,15,64C186.529,422.452,189.8,432.333,191,442Z"/>
</svg>
