<svg xmlns="http://www.w3.org/2000/svg" width="572" height="522" viewBox="0 0 572 522">
  <defs>
    <style>
      .cls-1 {
        fill: #f6d21c;
      }

      .cls-1, .cls-2 {
        fill-rule: evenodd;
      }

      .cls-2 {
        fill: #c00e1a;
      }
    </style>
  </defs>
  <path id="Заливка_цветом_4_копия_5" data-name="Заливка цветом 4 копия 5" class="cls-1" d="M194,69c4.761,3.016,13.785,10.775,15,17-5.792,3.882-9.1,11.524-16,14-3.968-5.866-12.4-9.184-14-17C184.445,81.157,191.054,73.557,194,69Zm184,0c5.055,3.234,13.924,11.052,16,17-5,1.884-11.611,9.332-14,14h-2L366,87l-3-1C362.1,84.386,375.508,72.652,378,69ZM175,88c5.4,1.776,14.875,10.991,16,17-6.511,2.253-10.4,9.6-15,14v-1c-2-1.242-15.5-14.17-15-16Zm37,0c5.181,1.73,14.233,10.841,16,16-2.763,1.973-13.879,15.016-17,14l-14-14Zm147,0c5.4,1.776,14.875,10.991,16,17-5.278,2.323-10.344,8.814-14,13-2.522-.815-16.511-13.9-16-16Zm37,0c5.4,1.776,14.875,10.991,16,17-7.09,2.526-8.932,10.414-16,13-1.768-2.538-14.493-13.943-14-16ZM157,106c5.055,3.234,13.924,11.052,16,17-5.445,1.843-12.054,9.443-15,14l-1-1c-4.472-2.825-13.587-10.475-15-16C147.445,118.157,154.054,110.557,157,106Zm184,0c5.055,3.234,13.924,11.052,16,17-6.765,3.086-9.207,11.021-16,14-2-2.869-15.007-13.746-14-17Zm73,0c5.4,1.776,14.875,10.991,16,17l-14,14-1-1c-4.472-2.825-13.587-10.475-15-16C404.947,118.367,412.328,110.921,414,106Zm-184,1h3c3.742,5.67,11.465,8.509,13,16-5.792,3.882-9.1,11.524-16,14-3.968-5.866-12.4-9.184-14-17C221.4,117.626,226.289,111.274,230,107Zm-92,18c5.4,1.776,14.875,10.991,16,17-7.09,2.526-8.932,10.414-16,13-1.768-2.538-14.493-13.943-14-16Zm110,0h3c3.753,5.955,11.456,9.156,14,16-5.866,3.968-9.184,12.4-17,14-3.882-5.792-11.524-9.1-14-16A52.949,52.949,0,0,0,248,125Zm74,0c6.889,2.407,10.25,10.126,16,14-0.631,1.754-.193.971-1,2-2.048,5.635-9.164,9.757-13,14-2.522-.815-16.511-13.9-16-16Zm111,0c5.328,1.775,14.186,10.7,16,16-5.792,3.882-9.1,11.524-16,14-1.768-2.538-14.493-13.943-14-16ZM120,143c5.055,3.234,13.924,11.052,16,17-5.554,2.172-12.129,13.263-14,14-0.365.144-14.808-11.775-16-14q-0.5-1-1-2Q112.5,150.5,120,143Zm147,0c5.245,1.873,14.872,11.086,16,17-5.792,3.882-9.1,11.524-16,14-2-2.869-15.007-13.746-14-17Zm37,0c4.678,2.962,14.524,11.249,16,17-6.693,3.065-9.28,11.048-16,14-2-2.869-15.007-13.746-14-17Zm147,0c5.4,1.776,14.875,10.991,16,17l-14,14-1-1c-4.472-2.825-13.587-10.475-15-16C442.049,155.082,448.324,147.5,451,143ZM101,162c5.328,1.775,14.186,10.7,16,16-5.792,3.882-9.1,11.524-16,14-1.767-2.538-14.493-13.943-14-16Zm184,0h3c3.712,5.49,11.5,8.719,13,16-4.9,4.454-9.172,11.752-16,14-1.768-2.538-14.493-13.943-14-16Zm184,0h3c3.882,5.792,11.524,9.1,14,16-5.792,3.882-9.1,11.524-16,14l-13-14h-2C454.133,176.441,466.847,165.152,469,162ZM83,180c3.678,1.223,15.214,12.823,16,17-5.445,1.843-12.054,9.443-15,14l-1-1-8-8C63.558,190.469,75.879,190.316,83,180Zm405,0c5.4,1.776,14.875,10.991,16,17-5,3.013-11.126,8.883-14,14l-1-1c-1.988-1.236-15.429-14.235-15-16Zm19,18c4.866,3.08,13.758,10.593,15,17-5.536,3.732-8.917,11.1-15,14-3.947-5.832-13.072-9.792-15-17C497.445,210.157,504.054,202.557,507,198ZM64,199h3c3.768,5.564,11.474,8.53,13,16-5.792,3.882-9.1,11.524-16,14-1.767-2.538-14.493-13.943-14-16ZM46,217c5.328,1.775,14.186,10.7,16,16-5.792,3.882-9.1,11.524-16,14-1.767-2.538-14.493-13.943-14-16Zm479,0c5.5,1.788,14.347,10.317,15,17-5.449,3.654-8.479,10.662-15,13-1.768-2.538-14.493-13.943-14-16ZM65,235c4.866,3.08,13.758,10.593,15,17L66,266l-1-1-9-9C45.83,245.772,58.065,245.02,65,235Zm442,0c4.866,3.08,13.758,10.593,15,17l-14,14-1-1c-4.821-3.079-13.018-10.31-15-16C497.445,247.157,504.054,239.557,507,235ZM82,254h3c3.882,5.792,11.524,9.1,14,16-5.792,3.882-9.1,11.524-16,14-3.968-5.866-12.4-9.184-14-17C73.722,264.689,80.105,258.966,82,254Zm406,0c5.328,1.775,14.186,10.7,16,16-5.792,3.882-9.1,11.524-16,14-1.768-2.538-14.493-13.943-14-16ZM101,272c5.4,1.776,14.875,10.991,16,17l-14,14-1-1c-4.821-3.079-13.018-10.31-15-16C92.035,283.192,97.889,276.782,101,272Zm369,0c4.678,2.962,14.524,11.249,16,17-5.445,1.843-12.054,9.443-15,14l-1-1c-4.821-3.079-13.018-10.31-15-16C460.445,284.157,467.054,276.557,470,272ZM119,291h3c3.882,5.792,11.524,9.1,14,16-5.792,3.882-9.1,11.524-16,14-2-2.864-15.007-13.75-14-17Zm332,0c4.956,1.625,14.708,10.809,16,16-5.792,3.882-9.1,11.524-16,14-3.968-5.866-12.4-9.184-14-17C442.189,302.251,448.208,295.324,451,291ZM138,309c5.4,1.776,14.875,10.991,16,17-6.685,2.739-8.4,11.234-16,13-1.923-2.751-13.743-12.441-14-13C122.8,323.392,136.249,311.56,138,309Zm295,0c5.277,1.766,14.818,11.175,16,17-7.228,2.569-9.47,10.835-16,14-2-2.869-15.007-13.746-14-17ZM157,327c5.055,3.234,13.924,11.052,16,17-7.228,2.569-9.47,10.835-16,14-3.947-5.832-13.072-9.792-15-17C147.445,339.157,154.054,331.557,157,327Zm257,0c5.4,1.776,14.875,10.991,16,17-5.792,3.882-9.1,11.524-16,14-2.707-7.482-11.882-9.3-14-17C404.947,339.367,412.328,331.921,414,327ZM175,346c5.328,1.775,14.186,10.7,16,16-5.792,3.882-9.1,11.524-16,14-1.768-2.538-14.493-13.943-14-16Zm221,0c5.4,1.776,14.875,10.991,16,17-7.09,2.526-8.932,10.414-16,13-1.768-2.538-14.493-13.943-14-16ZM193,364c5.4,1.776,14.875,10.991,16,17l-14,14-1-1c-4.472-2.825-13.587-10.475-15-16C183.947,376.367,191.328,368.921,193,364Zm185,0c5.055,3.234,13.924,11.052,16,17-5.445,1.843-12.054,9.443-15,14l-1-1-9-9C358.83,374.772,371.065,374.02,378,364ZM211,383h3c3.882,5.792,11.524,9.1,14,16-5.792,3.882-9.1,11.524-16,14-3.882-5.792-11.524-9.1-14-16h1C201.152,391.135,207.758,388.237,211,383Zm148,0c5.328,1.775,14.186,10.7,16,16-5.792,3.882-9.1,11.524-16,14-1.768-2.538-14.493-13.943-14-16ZM230,401c5.4,1.776,14.875,10.991,16,17l-14,14-1-1c-2-1.242-15.5-14.17-15-16Zm111,0c4.678,2.962,14.524,11.249,16,17-5.445,1.843-12.054,9.443-15,14l-1-1-8-8C321.558,411.469,333.879,411.316,341,401Zm-93,19h3c3.882,5.792,11.524,9.1,14,16-3.091,2.01-13.1,13.677-14,14-0.715.258-17.561-14.646-17-16Zm74,0c5.525,1.781,14.58,10.271,16,16-5.792,3.882-9.1,11.524-16,14-1.768-2.538-14.493-13.943-14-16Zm-55,18c5.328,1.775,14.186,10.7,16,16l-15,15v-1c-1.988-1.236-15.429-14.235-15-16Zm37,0c5.328,1.775,14.186,10.7,16,16-5.866,3.968-9.184,12.4-17,14l-13-13C289.019,451.588,301.961,440.983,304,438Zm-19,19h3c3.768,5.564,11.474,8.53,13,16l-14,14-1-1c-1.737-1.076-15.081-14.61-15-15Z"/>
  <path id="Заливка_цветом_9" data-name="Заливка цветом 9" class="cls-2" d="M413,41h11c1.225,2.281,1.638,2.251,2,6-4.17,6.273-2.976,15.563-6,23-4.5,11.075-14.6,31.77-22,40-23.658,26.3-56.492,44.651-89,62-11.041,5.893-23.271,8.83-34,15-10.551,6.068-22.305,12.2-33,19-5.694,3.619-9.807,10.92-18,12-1.285-1.834-1.968-1.712-3-4,6.19-3.892,11.748-10.31,18-14,16.885-9.966,33.838-16.942,51-27,5.2-3.046,11.711-8.383,17-11,16.442-8.135,30.012-16.663,45-26,4.313-2.686,9.074-10.109,13-13,4.074-3,8.954-5.144,12-9,11.15-14.117,23.67-30.639,30-49C409.933,56.491,410.126,48.785,413,41Zm50,152c-1.687-14.85-9.179-29.185-13-42-1.756-5.888-.138-9.539-2-15-3.425-10.047-7.311-23.168-10-34h-2v6c4.956,6.665,4.554,16.9,7,26,3.721,13.845,16.188,46.906,14,60-5.453,1.937-6.112,5.926-13,7l-1-3c-4.539-6.837-3.38-14.843-6-24-2.628-9.186-6.04-20.3-9-30-1.871-6.13-1.97-18.073-7-21v1c-1.5,1.624-1.552,2.023-2,5,3.658,5,2.925,14.68,5,21,4.27,13.006,16.946,50.633,15,63h-1c-1.493-1.665-.725-1.017-2-1-4.51,1.784-5.662,5.345-10,7-1.552-1.5-1.838-.777-3-3-5.569-8.994-4.942-22.147-8-33-3.632-12.886-8.862-26.653-11-41-2.076.372-1.924,0.242-3,1-0.877,1.295-.894,2.467-1,5,5.525,6.619,4.15,17.532,7,27,7.637,25.367,14.54,54.406,22,80,2.413,8.277,5.25,29.826,8,33,1.073,0.752.946,0.6,3,1,2.756-3.034,5.635-5.5,11-6v11c-7.107,2.856-12.048,7.041-20,9v-6c-0.8-1.18-.773-1.681-1-4,3.393-.946,3.111-0.385,4-4-6.76-10.145-9.039-38.095-13-52-8.148-28.6-18.945-59.028-23-90-2.328.195-2.826,0.193-4,1-3.248,1.159-7.556,3.939-9,7-3.334,6.25,5.291,22.6,7,29,5.837,21.875,7.711,41.533,14,63,2.554,8.719,6.917,18.111,8,28-2.076-.372-1.924-0.242-3-1-6.054-7.147-3.114-17.122-7-28-10-27.992-12.125-60.991-23-89h-2c-1.3,2.418-1.8,2.833-2,7,5.2,8.118,4.4,19.61,7,30,3.906,15.617,10.368,32.854,12,50-6.106,1.706-7.4,4.227-14,4v-2c-4.5-5.011-2.708-12.3-5-20-5.26-17.663-12.377-38.429-14-58-2.076.372-1.924,0.242-3,1-0.8,1.18-.773,1.681-1,4,3.289,4.978,2.028,11.364,4,18,5.563,18.715,14.374,40.6,12,63h-2c-2.189,1.968-6.809,3.217-10,4l-1-2c-5.409-8.432-3.956-20.171-7-31-4.062-14.449-8.415-32.1-12-47h-2v1h-1c3.629,20.654,9.883,42.5,15,62,1.645,6.267.322,10.478,2,16,6.545,21.541,12.123,42.8,12,68l-50,8c-5.42,1.234-12.074-.555-15,0l-58,8c-6.045,1.971-16.21,4.526-22,8-4.149,2.49-7.963,6.3-13,8v-2c-0.778-1.065-1.489-3.692-2-5,9.513-5.559,19.695-11.889,31-16,7.244-2.634,14.953,1.154,16-8-3.146-4.652-3.877-15.122-4-22l1-1h2q2.5,13.5,5,27c8.459-.94,15.054-2.9,25-3q-2-15.5-4-31c-5.244.9-6.265,3.323-12,4-1.225-2.281-1.638-2.251-2-6-2.547-4.074-1.543-9.608-3-15-3.556-13.16-5.479-30.293-9-43-1.561-5.632.5-12.346-4-15a23.414,23.414,0,0,1-11,6c-1.283-2.072-2.077-2.3-3-5,8.64-4.573,16.679-11.866,25-16,20.408-10.138,40.719-19.511,60-30,3.877-2.109,8.324-1.6,12-4,19.029-12.409,42.886-22.718,59-38,12.5-11.853,28.754-30.471,37-46,3.734-7.031,9.642-31.65,15-35,2.643-1.7,5.306-.381,9,0a18.322,18.322,0,0,1,1,6c-4.3,4.641-3.31,12.54-6,19-2.149,5.161-7.911,12.282-9,18-0.861,4.524,8.315,28.823,10,33q1,7,2,14c5.867,18.66,10.075,30.235,14,50h-3ZM179,59c13.781,1.981,17.768,16,23,27,16.438,34.568.578,60.223-15,83-2.767,4.045-3.564,7.8-7,11-0.07,13.117,4.264,22.493,5,35h2c4.525,2.715,13.091-.746,19,1,11.349,3.354,22.654,7.444,31,14,24.029,18.874,26.435,65.886,1,85-4.788,3.6-11.825,8.577-17,11-6.564,3.074-14.088,2.524-19,7,3.075,4.721,1.565,12.892,3,19,7.2,30.662,5.718,54.089-20,64-24.146,9.305-46.686-7.085-51-25-1.69-7.018,1.6-11.8,2-18,7.426-5.1,9.806-10.862,23-11,2.3,1.834,5.61,2.179,8,4l5,7c0.3,7.7-.867,12.831-5,16-3.589,3.156-12.014,4.627-15,3-4.96-1.4-6.848-3.984-10-7v10c5.1,6.256,8.234,14.454,19,15,6.339,5.023,20.263.969,25-2,27.1-16.984,10.35-42.613,9-74-1.754-.631-0.971-0.193-2-1-56.31,11.8-113.672-22.858-86-82,0.806-1.722,3.907-3.569,5-5,1.584-2.073.621-4.572,2-7,4.51-7.94,13.155-15.276,19-22v-3c12.178-14.231,27.992-25.6,38-42-4.541-6.857-3.874-21.419-6-31-4.921-22.177-9.536-71.523,11-80C176.771,60.318,178.232,59.689,179,59Zm0,25c-9.565,14.552-9.947,36.621-5,57,1.572,6.476.219,17.9,5,21v-2c14.454-17.483,14.325-55.332,4-76h-4Zm316,98v43c-7.633,2.369-19.143,11.718-27,16-2.057,1.121-8.928,2.02-10,4v12c3.343,5.271.067,17.734,1,25,4.135,32.208,5.2,78.393-27,83a19.54,19.54,0,0,0-4-2c-2.246-4.487-3.1-8.265-3-16,2.341-3.154,2.166-7.083,4-11,4.377-9.349,13.986-20,28-20q-2-55.494-4-111c8.839-3.506,18.16-6.989,26-12C484.316,189.6,487.691,183.57,495,182ZM344,320c9.824,0.161,16.169-2.2,24-4v-2c-3.389-4.907-11.535-43.007-12-51-5.944.788-6.852,3.327-13,4l-1-3c-3.714-5.98-2.882-15.984-5-23-5.146-17.048-10.387-36.122-12-55h-5c-1.456,2.125-2.839,2.5-4,5,4.319,6.008,4.651,24.719,7,33,3.517,12.4,6.9,27.981,10,40q0.5,6.5,1,13C337.482,289.92,341.85,305.535,344,320Zm-151,6c-0.289-30.211-11.254-59.348-13-89-13.853.223-33,16.931-26,33,2.276,5.228,7.617,7.483,10,12h-8c-3.613-3.385-8.784-5.234-11-10-16.359-17.837,9.248-43.609,19-50,4.392-2.878,10.231-2.688,14-6-4.354-6.868-1.1-20.669-6-27v2c-6.557,2.767-17.418,22.5-22,29-6.894,9.779-17.475,18.981-22,31-13.914,36.957,8.38,62.169,34,73C171.274,327.92,182.223,326.132,193,326ZM312,191c-3.181,2.768-10.081,4.332-14,6-1.577,8.136,3.754,23.2,6,32q0.5,7.5,1,15c3.375,13.787,5.86,32.2,10,46,1.952,6.506,2.311,27.85,5,32,1.073,0.752.946,0.6,3,1,4.053-2.416,12.38-.435,16-3,1.049-1.549,1.031-4.085,1-7-5.883-8.85-3.956-21.17-7-33-4.678-18.177-9.215-39.967-14-58C316.241,211.6,317.835,198.382,312,191ZM289,326c9.23,0.149,20.706-.381,28-3-5.1-13.629-3.887-30.315-8-46-2.414-9.207-4.354-23.2-7-33-0.958-3.549-.69-15.419-1-16-3.643-6.836-5.284-18.174-6-28h-5c-1.285,1.834-1.968,1.712-3,4q7.5,41,15,82c-5.105,2.011-7.476,4.656-15,5v-2c-3.936-6.172-2.024-14.653-4-23-2.742-11.583-5.323-24.681-8-36-1.858-7.856-.619-14.1-3-20-1.754.631-.971,0.193-2,1-0.961,1.418-.976,3.273-1,6,5.664,8.843,3.131,23.682,6,35,2.433,9.6,4.74,21.5,7,31v9C284.541,302.566,287.993,314.265,289,326Zm-88-3c23.756-.758,39.019-34.338,30-61-5.279-15.607-20.719-27.1-42-27a14.124,14.124,0,0,0-1,4c3.8,6.057,2.111,16.316,4,24,1.6,6.506,1.163,15.29,3,23C197.729,297.455,200.672,309.7,201,323Zm-7-83h7a14.124,14.124,0,0,1,1,4c-3.3,2.4-2.5,4.348-8,5v-9Zm301,8v14c-11.992,4.071-16.132,19.615-31,21V272c5.622-2.147,15.017-9.191,17-15-3.093-4.022-5.18-14.625-1-17a45.019,45.019,0,0,0,4,16C488.026,253.1,488.982,249.169,495,248ZM197,267q-0.5-3.5-1-7c5.7-4.342,8.405-13.9,17-15,1.225,2.281,1.638,2.251,2,6C207.345,254.215,206.048,265.525,197,267Zm182-10h3c9.761,16.358,37.1,21.18,43,34,3.13,6.8,3.053,23.482-3,27-2.785-14.278-18.671-13.164-29-20-5.886-3.9-7.93-10.131-11-17h-1v8c-4.629,7.846-.754,21.068-3,31-7.909,34.974,3.476,65.656-21,84-5.833,4.371-19.24,16.517-29,10-5.519-1.819-6.312-6.343-6-14,2.44-3.151,2.679-7.577,5-11a43.51,43.51,0,0,1,42-19c-0.048-20.329,1.92-44.67,6-63Q377,282,379,257ZM181,271v5h-5l-1-1,1-3A15.7,15.7,0,0,1,181,271Zm-8,12h5v2c-5.608,6.124-8.014,20.91-10,30h-2v-8C169.98,300.6,170.062,289.361,173,283Zm10,6c0,12.4-7.114,18.85-9,30h-3c1.1-11.281,4.943-21.337,9-30h3Zm201,23,5-1v-4c-1.471-1.993-1.812-4.649-2-8h1c1.021,0.8.274,0.355,2,1l3,9c6.656-2.569,12.4-1.679,18,1-0.631,1.754-.193.971-1,2-3.633,3.153-20.39,7.818-27,8l-1-1A24.933,24.933,0,0,0,384,312ZM168,339c0.8,1.18.773,1.681,1,4a14.124,14.124,0,0,1-4,1v-2h1C166.9,339.811,166.862,340.557,168,339Zm25,28h2v6c-4.445,4.36-6.738,10.4-12,14v-3c2.073-2.4,1.064-6.1,3-9C187.785,372.32,191.12,370.12,193,367Z"/>
</svg>
