<svg xmlns="http://www.w3.org/2000/svg" width="572" height="522" viewBox="0 0 572 522">
  <defs>
    <style>
      .cls-1 {
        fill: #f6d21c;
      }

      .cls-1, .cls-2 {
        fill-rule: evenodd;
      }

      .cls-2 {
        fill: #c00e1c;
      }
    </style>
  </defs>
  <path id="Заливка_цветом_4" data-name="Заливка цветом 4" class="cls-1" d="M187,41c4.761,3.016,13.785,10.775,15,17-5.792,3.882-9.1,11.524-16,14-3.968-5.866-12.4-9.184-14-17C177.445,53.157,184.054,45.557,187,41Zm184,0c5.055,3.234,13.924,11.052,16,17-5,1.884-11.611,9.332-14,14h-2L359,59l-3-1C355.1,56.386,368.508,44.652,371,41ZM168,60c5.4,1.776,14.875,10.991,16,17-6.511,2.253-10.4,9.6-15,14V90c-2-1.242-15.5-14.17-15-16Zm37,0c5.181,1.73,14.233,10.841,16,16-2.763,1.973-13.879,15.016-17,14L190,76Zm147,0c5.4,1.776,14.875,10.991,16,17-5.278,2.323-10.344,8.814-14,13-2.522-.815-16.511-13.9-16-16Zm37,0c5.4,1.776,14.875,10.991,16,17-7.09,2.526-8.932,10.414-16,13-1.768-2.538-14.493-13.943-14-16ZM150,78c5.055,3.234,13.924,11.052,16,17-5.445,1.843-12.054,9.443-15,14l-1-1c-4.472-2.825-13.587-10.475-15-16C140.445,90.157,147.054,82.557,150,78Zm184,0c5.055,3.234,13.924,11.052,16,17-6.765,3.086-9.207,11.021-16,14-2-2.869-15.007-13.746-14-17Zm73,0c5.4,1.776,14.875,10.991,16,17l-14,14-1-1c-4.472-2.825-13.587-10.475-15-16C397.947,90.367,405.328,82.921,407,78ZM223,79h3c3.742,5.67,11.465,8.51,13,16-5.792,3.882-9.1,11.524-16,14-3.968-5.866-12.4-9.184-14-17C214.4,89.626,219.289,83.274,223,79ZM131,97c5.4,1.776,14.875,10.991,16,17-7.09,2.526-8.932,10.414-16,13-1.768-2.538-14.493-13.943-14-16Zm110,0h3c3.753,5.955,11.456,9.156,14,16-5.866,3.968-9.184,12.4-17,14-3.882-5.792-11.524-9.1-14-16A52.949,52.949,0,0,0,241,97Zm74,0c6.889,2.407,10.25,10.126,16,14-0.631,1.754-.193.971-1,2-2.048,5.635-9.164,9.757-13,14-2.522-.815-16.511-13.9-16-16Zm111,0c5.328,1.775,14.186,10.7,16,16-5.792,3.882-9.1,11.524-16,14-1.768-2.538-14.493-13.943-14-16ZM113,115c5.055,3.234,13.924,11.052,16,17-5.554,2.172-12.129,13.263-14,14-0.365.144-14.808-11.775-16-14l-1-2Zm147,0c5.245,1.873,14.872,11.086,16,17-5.792,3.882-9.1,11.524-16,14-2-2.869-15.007-13.746-14-17Zm37,0c4.678,2.962,14.524,11.249,16,17-6.693,3.065-9.28,11.048-16,14-2-2.869-15.007-13.746-14-17Zm147,0c5.4,1.776,14.875,10.991,16,17l-14,14-1-1c-4.472-2.825-13.587-10.475-15-16C435.049,127.082,441.324,119.5,444,115ZM94,134c5.328,1.775,14.186,10.7,16,16-5.792,3.882-9.1,11.524-16,14-1.767-2.538-14.493-13.943-14-16Zm184,0h3c3.712,5.49,11.5,8.719,13,16-4.9,4.454-9.172,11.752-16,14-1.768-2.538-14.493-13.943-14-16Zm184,0h3c3.882,5.792,11.524,9.1,14,16-5.792,3.882-9.1,11.524-16,14l-13-14h-2C447.133,148.441,459.847,137.152,462,134ZM76,152c3.678,1.223,15.214,12.823,16,17-5.445,1.843-12.054,9.443-15,14l-1-1-8-8C56.558,162.469,68.879,162.316,76,152Zm405,0c5.4,1.776,14.875,10.991,16,17-5,3.013-11.126,8.883-14,14l-1-1c-1.988-1.236-15.429-14.235-15-16Zm19,18c4.866,3.08,13.758,10.593,15,17-5.536,3.732-8.917,11.1-15,14-3.947-5.832-13.072-9.792-15-17C490.445,182.157,497.054,174.557,500,170ZM57,171h3c3.768,5.564,11.474,8.53,13,16-5.792,3.882-9.1,11.524-16,14-1.767-2.538-14.493-13.943-14-16ZM39,189c5.328,1.775,14.186,10.7,16,16-5.792,3.882-9.1,11.524-16,14-1.767-2.538-14.493-13.943-14-16Zm479,0c5.5,1.788,14.347,10.317,15,17-5.449,3.654-8.479,10.662-15,13-1.768-2.538-14.493-13.943-14-16ZM58,207c4.866,3.08,13.758,10.593,15,17L59,238l-1-1-9-9C38.83,217.772,51.065,217.02,58,207Zm442,0c4.866,3.08,13.758,10.593,15,17l-14,14-1-1c-4.821-3.079-13.018-10.31-15-16C490.445,219.157,497.054,211.557,500,207ZM75,226h3c3.882,5.792,11.524,9.1,14,16-5.792,3.882-9.1,11.524-16,14-3.968-5.866-12.4-9.184-14-17C66.722,236.689,73.105,230.966,75,226Zm406,0c5.328,1.775,14.186,10.7,16,16-5.792,3.882-9.1,11.524-16,14-1.768-2.538-14.493-13.943-14-16ZM94,244c5.4,1.776,14.875,10.991,16,17L96,275l-1-1c-4.821-3.079-13.018-10.31-15-16C85.035,255.192,90.889,248.782,94,244Zm369,0c4.678,2.962,14.524,11.249,16,17-5.445,1.843-12.054,9.443-15,14l-1-1c-4.821-3.079-13.018-10.31-15-16C453.445,256.157,460.054,248.557,463,244ZM112,263h3c3.882,5.792,11.524,9.1,14,16-5.792,3.882-9.1,11.524-16,14-2-2.864-15.007-13.75-14-17Zm332,0c4.956,1.625,14.708,10.809,16,16-5.792,3.882-9.1,11.524-16,14-3.968-5.866-12.4-9.184-14-17C435.189,274.251,441.208,267.324,444,263ZM131,281c5.4,1.776,14.875,10.991,16,17-6.685,2.739-8.4,11.234-16,13-1.923-2.751-13.743-12.441-14-13C115.8,295.392,129.249,283.56,131,281Zm295,0c5.277,1.766,14.818,11.175,16,17-7.228,2.569-9.47,10.835-16,14-2-2.869-15.007-13.746-14-17ZM150,299c5.055,3.234,13.924,11.052,16,17-7.228,2.569-9.47,10.835-16,14-3.947-5.832-13.072-9.792-15-17C140.445,311.157,147.054,303.557,150,299Zm257,0c5.4,1.776,14.875,10.991,16,17-5.792,3.882-9.1,11.524-16,14-2.707-7.482-11.882-9.3-14-17C397.947,311.367,405.328,303.921,407,299ZM168,318c5.328,1.775,14.186,10.7,16,16-5.792,3.882-9.1,11.524-16,14-1.768-2.538-14.493-13.943-14-16Zm221,0c5.4,1.776,14.875,10.991,16,17-7.09,2.526-8.932,10.414-16,13-1.768-2.538-14.493-13.943-14-16ZM186,336c5.4,1.776,14.875,10.991,16,17l-14,14-1-1c-4.472-2.825-13.587-10.475-15-16C176.947,348.367,184.328,340.921,186,336Zm185,0c5.055,3.234,13.924,11.052,16,17-5.445,1.843-12.054,9.443-15,14l-1-1-9-9C351.83,346.772,364.065,346.02,371,336ZM204,355h3c3.882,5.792,11.524,9.1,14,16-5.792,3.882-9.1,11.524-16,14-3.882-5.792-11.524-9.1-14-16h1C194.152,363.135,200.758,360.237,204,355Zm148,0c5.328,1.775,14.186,10.7,16,16-5.792,3.882-9.1,11.524-16,14-1.768-2.538-14.493-13.943-14-16ZM223,373c5.4,1.776,14.875,10.991,16,17l-14,14-1-1c-2-1.242-15.5-14.17-15-16Zm111,0c4.678,2.962,14.524,11.249,16,17-5.445,1.843-12.054,9.443-15,14l-1-1-8-8C314.558,383.469,326.879,383.316,334,373Zm-93,19h3c3.882,5.792,11.524,9.1,14,16-3.091,2.01-13.1,13.677-14,14-0.715.258-17.561-14.646-17-16Zm74,0c5.525,1.781,14.58,10.271,16,16-5.792,3.882-9.1,11.524-16,14-1.768-2.538-14.493-13.943-14-16Zm-55,18c5.328,1.775,14.186,10.7,16,16l-15,15v-1c-1.988-1.236-15.429-14.235-15-16Zm37,0c5.328,1.775,14.186,10.7,16,16-5.866,3.968-9.184,12.4-17,14l-13-13C282.019,423.588,294.961,412.983,297,410Zm-19,19h3c3.768,5.564,11.474,8.53,13,16l-14,14-1-1c-1.737-1.076-15.081-14.61-15-15Z"/>
  <path id="Заливка_цветом_3" data-name="Заливка цветом 3" class="cls-2" d="M204,155c1.616-19.135.529-41.164,19-43,5.431-3.405,21.1-1,29-1,24.513,0.014,55.769,2.285,73-1,7.81-1.489,18.213,2.629,22,6,4.524,4.027,8.262,12.471,10,19,1.583,5.947-1.7,14.509,1,19,3.667,2.3,13.5,1,19,1h46c4.286,2.563,11.335.93,16,3,10.6,4.7,22.715,14.97,28,25,7.344,13.937,7.379,67.677,5,81v24c0,12.1,2.844,37.682-1,47-4.033,9.775-11.418,20.511-19,27-4.625,3.958-12.311,4.006-17,8-4.129,3.517-5.994,10.311-10,14-16.593,15.28-55.395,39.406-91,31H319c-28.973-9.016-48.08-24.269-67-43-25.666.188-49.76,0.069-74,0-15.042-.043-32.892,1.712-45-2-7.433-2.279-17.34-8.54-22-14-19.466-22.81-12-82.87-12-122,0-17.064-3.031-41.426,4-52,6.386-9.6,16.6-19.426,28-24,5.536-2.222,14.229-.892,19-4,1.806-2.56,1.284-6.052,3-9,2.178-3.741,7.891-5.085,11-8,11.827-.461,23.173-0.526,27,7C195.806,149.6,192.6,155.223,204,155Zm135,16c0.046-13.677-.769-27.686-1-40-3.091-2.057-2.926-3.46-8-4-4.5-2.814-23.746-.028-31,0-22.42.087-61.473-4.245-76,3-1.014,10.218,1.125,33.453-2,40-6.694,4.007-25.9,1-35,1-47.078,0-71.915-.774-72,47-0.014,7.625-1,18.052,1,24h2c14.069-18,73.294-12.1,106-12,7.221-21.526,38.653-36.357,63-42,12.13-2.811,24.056,2.338,33,3l12-2c21.424-2.115,41.183,1.325,56,7,27.078,10.371,40.28,36.8,68,46V202c-1.815-2.648-.143-6.65-2-10-2.7-4.868-10.109-13.275-15-16C419.926,165.929,366.55,170.812,339,171Zm-82-25c17.064-.135,35.223-0.042,50,2,1.664,5.757,3.99,7.14,4,16-3.444,1.557-4.877,5.723-8,7H261c-1.418-.961-3.273-0.976-6-1-2.173-5.169-5.4-6.512-6-14A74.471,74.471,0,0,0,257,146Zm31,49c-4.686,2.888-11.485,2.068-17,4-2.81.984-5.436,3.86-8,5l-6,1c-36.191,26.045-48.712,61.818-29,110h2c-5.462-44.427,15.531-78.568,38-99,8.454-7.688,23.876-11.143,31-20l-1-1H288Zm44,6c-7.437,4.784-22.549,5.151-31,9-20.088,9.15-36.856,27.744-48,46-10.677,17.491-13.375,57.753-5,80,13.388,35.562,37.963,55.371,78,65,7.27,1.748,17.817,3.881,25,3,43.863-5.38,68.256-29.422,86-61,1.97-3.5.626-7.155,2-11,0.654-1.83,3.435-6.157,4-8V312c3.319-13.124-1.568-32.941-6-46v-5C415,225.828,389.866,200.683,332,201Zm-3,16c11-.158,25.708-1.857,35,1,37.5,11.53,80.07,52.5,64,106-2.183,7.269-5.158,15.711-9,22-13.535,22.155-33.5,34.513-62,42-5.693,1.5-11.885.384-16,0-43.438-4.053-69.8-25.991-82-64-3.484-10.853-2.464-36.311,1-46,7.163-20.037,20.88-39.944,38-50C306.631,222.93,320.88,222.4,329,217Zm2,7-20,6c-21.347,13.376-52.224,40.709-45,78h1c19.025-17.906,66.368-39.564,105-24,4.319,1.74,7.715-.145,12,2,5.142,2.574,15.144,6.531,20,10,5.942,4.244,10.7,12.327,18,15V293c-5.293-8.487-3.973-22.932-10-31C393.679,237.474,375.064,223.665,331,224Z"/>
</svg>
