<svg xmlns="http://www.w3.org/2000/svg" width="572" height="522" viewBox="0 0 572 522">
  <defs>
    <style>
      .cls-1 {
        fill: #f6d21c;
      }

      .cls-1, .cls-2 {
        fill-rule: evenodd;
      }

      .cls-2 {
        fill: #c00e1a;
      }
    </style>
  </defs>
  <path id="Заливка_цветом_4_копия_4" data-name="Заливка цветом 4 копия 4" class="cls-1" d="M194,69c4.761,3.016,13.785,10.775,15,17-5.792,3.882-9.1,11.524-16,14-3.968-5.866-12.4-9.184-14-17C184.445,81.157,191.054,73.557,194,69Zm184,0c5.055,3.234,13.924,11.052,16,17-5,1.884-11.611,9.332-14,14h-2L366,87l-3-1C362.1,84.386,375.508,72.652,378,69ZM175,88c5.4,1.776,14.875,10.991,16,17-6.511,2.253-10.4,9.6-15,14v-1c-2-1.242-15.5-14.17-15-16Zm37,0c5.181,1.73,14.233,10.841,16,16-2.763,1.973-13.879,15.016-17,14l-14-14Zm147,0c5.4,1.776,14.875,10.991,16,17-5.278,2.323-10.344,8.814-14,13-2.522-.815-16.511-13.9-16-16Zm37,0c5.4,1.776,14.875,10.991,16,17-7.09,2.526-8.932,10.414-16,13-1.768-2.538-14.493-13.943-14-16ZM157,106c5.055,3.234,13.924,11.052,16,17-5.445,1.843-12.054,9.443-15,14l-1-1c-4.472-2.825-13.587-10.475-15-16C147.445,118.157,154.054,110.557,157,106Zm184,0c5.055,3.234,13.924,11.052,16,17-6.765,3.086-9.207,11.021-16,14-2-2.869-15.007-13.746-14-17Zm73,0c5.4,1.776,14.875,10.991,16,17l-14,14-1-1c-4.472-2.825-13.587-10.475-15-16C404.947,118.367,412.328,110.921,414,106Zm-184,1h3c3.742,5.67,11.465,8.509,13,16-5.792,3.882-9.1,11.524-16,14-3.968-5.866-12.4-9.184-14-17C221.4,117.626,226.289,111.274,230,107Zm-92,18c5.4,1.776,14.875,10.991,16,17-7.09,2.526-8.932,10.414-16,13-1.768-2.538-14.493-13.943-14-16Zm110,0h3c3.753,5.955,11.456,9.156,14,16-5.866,3.968-9.184,12.4-17,14-3.882-5.792-11.524-9.1-14-16A52.949,52.949,0,0,0,248,125Zm74,0c6.889,2.407,10.25,10.126,16,14-0.631,1.754-.193.971-1,2-2.048,5.635-9.164,9.757-13,14-2.522-.815-16.511-13.9-16-16Zm111,0c5.328,1.775,14.186,10.7,16,16-5.792,3.882-9.1,11.524-16,14-1.768-2.538-14.493-13.943-14-16ZM120,143c5.055,3.234,13.924,11.052,16,17-5.554,2.172-12.129,13.263-14,14-0.365.144-14.808-11.775-16-14q-0.5-1-1-2Q112.5,150.5,120,143Zm147,0c5.245,1.873,14.872,11.086,16,17-5.792,3.882-9.1,11.524-16,14-2-2.869-15.007-13.746-14-17Zm37,0c4.678,2.962,14.524,11.249,16,17-6.693,3.065-9.28,11.048-16,14-2-2.869-15.007-13.746-14-17Zm147,0c5.4,1.776,14.875,10.991,16,17l-14,14-1-1c-4.472-2.825-13.587-10.475-15-16C442.049,155.082,448.324,147.5,451,143ZM101,162c5.328,1.775,14.186,10.7,16,16-5.792,3.882-9.1,11.524-16,14-1.767-2.538-14.493-13.943-14-16Zm184,0h3c3.712,5.49,11.5,8.719,13,16-4.9,4.454-9.172,11.752-16,14-1.768-2.538-14.493-13.943-14-16Zm184,0h3c3.882,5.792,11.524,9.1,14,16-5.792,3.882-9.1,11.524-16,14l-13-14h-2C454.133,176.441,466.847,165.152,469,162ZM83,180c3.678,1.223,15.214,12.823,16,17-5.445,1.843-12.054,9.443-15,14l-1-1-8-8C63.558,190.469,75.879,190.316,83,180Zm405,0c5.4,1.776,14.875,10.991,16,17-5,3.013-11.126,8.883-14,14l-1-1c-1.988-1.236-15.429-14.235-15-16Zm19,18c4.866,3.08,13.758,10.593,15,17-5.536,3.732-8.917,11.1-15,14-3.947-5.832-13.072-9.792-15-17C497.445,210.157,504.054,202.557,507,198ZM64,199h3c3.768,5.564,11.474,8.53,13,16-5.792,3.882-9.1,11.524-16,14-1.767-2.538-14.493-13.943-14-16ZM46,217c5.328,1.775,14.186,10.7,16,16-5.792,3.882-9.1,11.524-16,14-1.767-2.538-14.493-13.943-14-16Zm479,0c5.5,1.788,14.347,10.317,15,17-5.449,3.654-8.479,10.662-15,13-1.768-2.538-14.493-13.943-14-16ZM65,235c4.866,3.08,13.758,10.593,15,17L66,266l-1-1-9-9C45.83,245.772,58.065,245.02,65,235Zm442,0c4.866,3.08,13.758,10.593,15,17l-14,14-1-1c-4.821-3.079-13.018-10.31-15-16C497.445,247.157,504.054,239.557,507,235ZM82,254h3c3.882,5.792,11.524,9.1,14,16-5.792,3.882-9.1,11.524-16,14-3.968-5.866-12.4-9.184-14-17C73.722,264.689,80.105,258.966,82,254Zm406,0c5.328,1.775,14.186,10.7,16,16-5.792,3.882-9.1,11.524-16,14-1.768-2.538-14.493-13.943-14-16ZM101,272c5.4,1.776,14.875,10.991,16,17l-14,14-1-1c-4.821-3.079-13.018-10.31-15-16C92.035,283.192,97.889,276.782,101,272Zm369,0c4.678,2.962,14.524,11.249,16,17-5.445,1.843-12.054,9.443-15,14l-1-1c-4.821-3.079-13.018-10.31-15-16C460.445,284.157,467.054,276.557,470,272ZM119,291h3c3.882,5.792,11.524,9.1,14,16-5.792,3.882-9.1,11.524-16,14-2-2.864-15.007-13.75-14-17Zm332,0c4.956,1.625,14.708,10.809,16,16-5.792,3.882-9.1,11.524-16,14-3.968-5.866-12.4-9.184-14-17C442.189,302.251,448.208,295.324,451,291ZM138,309c5.4,1.776,14.875,10.991,16,17-6.685,2.739-8.4,11.234-16,13-1.923-2.751-13.743-12.441-14-13C122.8,323.392,136.249,311.56,138,309Zm295,0c5.277,1.766,14.818,11.175,16,17-7.228,2.569-9.47,10.835-16,14-2-2.869-15.007-13.746-14-17ZM157,327c5.055,3.234,13.924,11.052,16,17-7.228,2.569-9.47,10.835-16,14-3.947-5.832-13.072-9.792-15-17C147.445,339.157,154.054,331.557,157,327Zm257,0c5.4,1.776,14.875,10.991,16,17-5.792,3.882-9.1,11.524-16,14-2.707-7.482-11.882-9.3-14-17C404.947,339.367,412.328,331.921,414,327ZM175,346c5.328,1.775,14.186,10.7,16,16-5.792,3.882-9.1,11.524-16,14-1.768-2.538-14.493-13.943-14-16Zm221,0c5.4,1.776,14.875,10.991,16,17-7.09,2.526-8.932,10.414-16,13-1.768-2.538-14.493-13.943-14-16ZM193,364c5.4,1.776,14.875,10.991,16,17l-14,14-1-1c-4.472-2.825-13.587-10.475-15-16C183.947,376.367,191.328,368.921,193,364Zm185,0c5.055,3.234,13.924,11.052,16,17-5.445,1.843-12.054,9.443-15,14l-1-1-9-9C358.83,374.772,371.065,374.02,378,364ZM211,383h3c3.882,5.792,11.524,9.1,14,16-5.792,3.882-9.1,11.524-16,14-3.882-5.792-11.524-9.1-14-16h1C201.152,391.135,207.758,388.237,211,383Zm148,0c5.328,1.775,14.186,10.7,16,16-5.792,3.882-9.1,11.524-16,14-1.768-2.538-14.493-13.943-14-16ZM230,401c5.4,1.776,14.875,10.991,16,17l-14,14-1-1c-2-1.242-15.5-14.17-15-16Zm111,0c4.678,2.962,14.524,11.249,16,17-5.445,1.843-12.054,9.443-15,14l-1-1-8-8C321.558,411.469,333.879,411.316,341,401Zm-93,19h3c3.882,5.792,11.524,9.1,14,16-3.091,2.01-13.1,13.677-14,14-0.715.258-17.561-14.646-17-16Zm74,0c5.525,1.781,14.58,10.271,16,16-5.792,3.882-9.1,11.524-16,14-1.768-2.538-14.493-13.943-14-16Zm-55,18c5.328,1.775,14.186,10.7,16,16l-15,15v-1c-1.988-1.236-15.429-14.235-15-16Zm37,0c5.328,1.775,14.186,10.7,16,16-5.866,3.968-9.184,12.4-17,14l-13-13C289.019,451.588,301.961,440.983,304,438Zm-19,19h3c3.768,5.564,11.474,8.53,13,16l-14,14-1-1c-1.737-1.076-15.081-14.61-15-15Z"/>
  <path id="Заливка_цветом_8" data-name="Заливка цветом 8" class="cls-2" d="M282,38c24.688-.793,49.322,14.515,65,24l12,4c9.185,4.03,17.882,8.566,28,13,18.878,8.272,38.068,20.877,57,29,14.812,6.355,31.948,11.715,43,22-0.631,1.754-.193.971-1,2-3.429,7.711-35.8,19.226-45,24-22.3,11.578-46.263,24-69,34-3.924,1.726-7.336.992-11,3-17.4,9.537-35.763,17.383-55,26-2.726,1.221-5.448,4.1-9,5-9.95,2.517-17.736-2.725-23-5-17.243-7.452-33.266-14.659-49-23-6.5-3.444-19.277-4.793-21-13,4.04-1.212,5.877-4.555,9-6h5c3.453-1.6,7.65-6.136,11-8,6.114-3.4,12.81-4.292,19-8,8.8-5.268,18.2-11.649,28-16,3.03-1.345,6.151-.383,8,0a24.767,24.767,0,0,0,22-6c4.234-3.7,5.953-2.557,6-11-1.262-1.359-1.365-1.768-2-4-3.77-1.507-8.063-4.823-12-6-8.081-2.416-15.885,1.579-22,2l-7,7q-0.5,4-1,8c-2.337,3.906-10.789,5.717-15,8-13.112,7.107-26.21,12.986-40,20-8.389,4.266-16.255,13.691-27,15-4.916-3.588-11.181-4.309-17-7-16.806-7.772-35.337-17.317-52-26-7.54-3.929-21.693-5.929-22-17,25.237-13.628,50.967-25,78-37,15.634-6.939,32.057-18.166,48-25a279.249,279.249,0,0,0,29-14l9-2C265.808,47.037,276.115,42.712,282,38ZM176,246h-4c-1.061-5.5-4.64-8.149-6-13-2.231-7.96.5-48.15,1-49,1.455-2.542-.217-1.128,3-2,5.467,4.179,11.863,3.065,12,13C178.835,200.082,176.235,237.052,176,246Zm33-43c9.517,1.024,16.319,6.114,23,10,6.784,3.946,13.47,4.564,21,8,10.439,4.763,20.572,12.775,33,16,11.94,3.1,30.852-10.292,38-14,15.223-7.9,30.883-11.984,46-20,11.992-6.359,26.486-17.282,41-20l1,3v19c3.125,34.308-3.372,40.688-22,56-42.2,34.686-113.28,48.145-172,19C217.2,254.031,209.439,230.474,209,203Zm-13,3c0.947,32.887,10.095,65.381,12,100-7.2,4.846-25.726,8.731-28-4,4.915-8.021,1.46-20.742,4-31,3.455-13.953,4.608-32.032,8-46,1.482-6.1-.652-14.1,1-19h3ZM359,319c14.808-1.647,29.532-7.35,42-12,11.247-4.195,22.717-4.114,34-8,10.9-3.755,35.477-15.9,51-10,6.156,2.339,12.707,9.415,17,14,13.358,14.267,12.022,46.8,1,62-8.763,12.083-23.69,10.9-40,16-2.7.845-6.31,2.765-10,4-2.613.874-9.614-.454-15,1-8.985,2.426-17.828,6.865-29,7-2.946-5.914-8.48-10.029-11-16q-0.5-6.5-1-13c-1.3-4.6-5.757-11.858-9-15-2.448-2.372-5.951-2.083-9-4-3.621-2.277-3.687-7.219-6-11C370.3,327.946,360.894,327.006,359,319ZM208,349c7.533-.451,15.445-2.414,22-4,9.695-2.346,17.834-.551,27-3,23.7-6.33,51.053-10.484,75-16,14.382-3.313,32.081,12.3,34,22-5.775,3.954-10.7,12.938-10,23,0.262,3.759,1.452,6.68,0,11-3.5,10.423-10.811,20.142-14,32-10.624.318-20.643,6.552-29,10l-24,7c-15.373,6.662-33.077,15.751-50,20v-3c6.417-4.54,6.774-10.837,9-20,6.328-26.043-7.029-51.713-22-63C220.881,361.141,209.286,356.249,208,349Zm-71,85c-6.043-43.677-1.171-69.6,37-79,9.645-2.376,18.331,2.106,24,4,22.512,7.523,55.344,42.307,40,76-6.28,13.79-29.5,28.519-52,19-12.351-5.224-18.245-13.726-24-26-3.251-6.932-5.631-17.878-2-27,2.695-6.771,8.12-10.4,13-15,29.111-.547,24.844,4.366,40,19v5l-9,3a20.929,20.929,0,0,0-20-15c-1.521,1.051-4.915,1.586-7,2-3.5,5.141-11.524,16.144-5,25,5.756,19.5,23.044,20.8,44,16,17.788-27.291,1.755-55.738-24-64-7.113-2.282-13.567-.243-21,0-3.894,4.483-11.57,6.116-15,11-7.708,10.977-6.174,24.671-6,42l-1,1C143.846,431.762,143,433.617,137,434Zm236-79c2.9-.06,5.468-0.048,7,1,5.069,1.358,7.073,3.214,7,10,2.734,3.979-.06,10.432-1,14-4.159,2.124-5.341,3.835-12,4-7.621-10.906-10.31-10.271-6-26A9.6,9.6,0,0,0,373,355Zm37,56h-8c-2.357,3.545-5.039,4.811-6,10h-4c-1.25-10.094-7.219-18-8-29,3.966-2.5,4.941-5.351,11-6C398.186,395.455,408.17,400.722,410,411Zm-47-24c4.239,1.119,12.841,4.459,14,9,0.923,2-2.411,26.507-4,31-1.754-.631-0.971-0.193-2-1-4.893-1.588-5.663-4.869-11-6-2.789,3.654-7.767,5.827-13,7v-4C354.509,413.258,357.555,398.412,363,387ZM215,420c0.007,2.72-.039,4.6-1,6-2.053,6.519-8.677,9.822-17,10-2.7-2.412-7.012-2.814-10-5-2.887-2.113-4.477-6.442-7-9a62.538,62.538,0,0,1,1-13,25.086,25.086,0,0,1,8-1c1.021,0.8.274,0.355,2,1,1.33,5.824,5.589,14.736,13,15C206.681,421.346,209.727,420.173,215,420Z"/>
</svg>
