<svg xmlns="http://www.w3.org/2000/svg" width="572" height="522" viewBox="0 0 572 522">
  <defs>
    <style>
      .cls-1 {
        fill: #f6d21c;
      }

      .cls-1, .cls-2 {
        fill-rule: evenodd;
      }

      .cls-2 {
        fill: #c00e1a;
      }
    </style>
  </defs>
  <path id="Заливка_цветом_4_копия_3" data-name="Заливка цветом 4 копия 3" class="cls-1" d="M194,52c4.761,3.016,13.785,10.775,15,17-5.792,3.882-9.1,11.524-16,14-3.968-5.866-12.4-9.184-14-17C184.445,64.157,191.054,56.557,194,52Zm184,0c5.055,3.234,13.924,11.052,16,17-5,1.884-11.611,9.332-14,14h-2L366,70l-3-1C362.1,67.386,375.508,55.652,378,52ZM175,71c5.4,1.776,14.875,10.991,16,17-6.511,2.253-10.4,9.6-15,14v-1c-2-1.242-15.5-14.17-15-16Zm37,0c5.181,1.73,14.233,10.841,16,16-2.763,1.973-13.879,15.016-17,14L197,87Zm147,0c5.4,1.776,14.875,10.991,16,17-5.278,2.323-10.344,8.814-14,13-2.522-.815-16.511-13.9-16-16Zm37,0c5.4,1.776,14.875,10.991,16,17-7.09,2.526-8.932,10.414-16,13-1.768-2.538-14.493-13.943-14-16ZM157,89c5.055,3.234,13.924,11.052,16,17-5.445,1.843-12.054,9.443-15,14l-1-1c-4.472-2.825-13.587-10.475-15-16C147.445,101.157,154.054,93.557,157,89Zm184,0c5.055,3.234,13.924,11.052,16,17-6.765,3.086-9.207,11.021-16,14-2-2.869-15.007-13.746-14-17Zm73,0c5.4,1.776,14.875,10.991,16,17l-14,14-1-1c-4.472-2.825-13.587-10.475-15-16C404.947,101.367,412.328,93.921,414,89ZM230,90h3c3.742,5.67,11.465,8.51,13,16-5.792,3.882-9.1,11.524-16,14-3.968-5.866-12.4-9.184-14-17C221.4,100.626,226.289,94.274,230,90Zm-92,18c5.4,1.776,14.875,10.991,16,17-7.09,2.526-8.932,10.414-16,13-1.768-2.538-14.493-13.943-14-16Zm110,0h3c3.753,5.955,11.456,9.156,14,16-5.866,3.968-9.184,12.4-17,14-3.882-5.792-11.524-9.1-14-16A52.949,52.949,0,0,0,248,108Zm74,0c6.889,2.407,10.25,10.126,16,14-0.631,1.754-.193.971-1,2-2.048,5.635-9.164,9.757-13,14-2.522-.815-16.511-13.9-16-16Zm111,0c5.328,1.775,14.186,10.7,16,16-5.792,3.882-9.1,11.524-16,14-1.768-2.538-14.493-13.943-14-16ZM120,126c5.055,3.234,13.924,11.052,16,17-5.554,2.172-12.129,13.263-14,14-0.365.144-14.808-11.775-16-14q-0.5-1-1-2Q112.5,133.5,120,126Zm147,0c5.245,1.873,14.872,11.086,16,17-5.792,3.882-9.1,11.524-16,14-2-2.869-15.007-13.746-14-17Zm37,0c4.678,2.962,14.524,11.249,16,17-6.693,3.065-9.28,11.048-16,14-2-2.869-15.007-13.746-14-17Zm147,0c5.4,1.776,14.875,10.991,16,17l-14,14-1-1c-4.472-2.825-13.587-10.475-15-16C442.049,138.082,448.324,130.5,451,126ZM101,145c5.328,1.775,14.186,10.7,16,16-5.792,3.882-9.1,11.524-16,14-1.767-2.538-14.493-13.943-14-16Zm184,0h3c3.712,5.49,11.5,8.719,13,16-4.9,4.454-9.172,11.752-16,14-1.768-2.538-14.493-13.943-14-16Zm184,0h3c3.882,5.792,11.524,9.1,14,16-5.792,3.882-9.1,11.524-16,14l-13-14h-2C454.133,159.441,466.847,148.152,469,145ZM83,163c3.678,1.223,15.214,12.823,16,17-5.445,1.843-12.054,9.443-15,14l-1-1-8-8C63.558,173.469,75.879,173.316,83,163Zm405,0c5.4,1.776,14.875,10.991,16,17-5,3.013-11.126,8.883-14,14l-1-1c-1.988-1.236-15.429-14.235-15-16Zm19,18c4.866,3.08,13.758,10.593,15,17-5.536,3.732-8.917,11.1-15,14-3.947-5.832-13.072-9.792-15-17C497.445,193.157,504.054,185.557,507,181ZM64,182h3c3.768,5.564,11.474,8.53,13,16-5.792,3.882-9.1,11.524-16,14-1.767-2.538-14.493-13.943-14-16ZM46,200c5.328,1.775,14.186,10.7,16,16-5.792,3.882-9.1,11.524-16,14-1.767-2.538-14.493-13.943-14-16Zm479,0c5.5,1.788,14.347,10.317,15,17-5.449,3.654-8.479,10.662-15,13-1.768-2.538-14.493-13.943-14-16ZM65,218c4.866,3.08,13.758,10.593,15,17L66,249l-1-1-9-9C45.83,228.772,58.065,228.02,65,218Zm442,0c4.866,3.08,13.758,10.593,15,17l-14,14-1-1c-4.821-3.079-13.018-10.31-15-16C497.445,230.157,504.054,222.557,507,218ZM82,237h3c3.882,5.792,11.524,9.1,14,16-5.792,3.882-9.1,11.524-16,14-3.968-5.866-12.4-9.184-14-17C73.722,247.689,80.105,241.966,82,237Zm406,0c5.328,1.775,14.186,10.7,16,16-5.792,3.882-9.1,11.524-16,14-1.768-2.538-14.493-13.943-14-16ZM101,255c5.4,1.776,14.875,10.991,16,17l-14,14-1-1c-4.821-3.079-13.018-10.31-15-16C92.035,266.192,97.889,259.782,101,255Zm369,0c4.678,2.962,14.524,11.249,16,17-5.445,1.843-12.054,9.443-15,14l-1-1c-4.821-3.079-13.018-10.31-15-16C460.445,267.157,467.054,259.557,470,255ZM119,274h3c3.882,5.792,11.524,9.1,14,16-5.792,3.882-9.1,11.524-16,14-2-2.864-15.007-13.75-14-17Zm332,0c4.956,1.625,14.708,10.809,16,16-5.792,3.882-9.1,11.524-16,14-3.968-5.866-12.4-9.184-14-17C442.189,285.251,448.208,278.324,451,274ZM138,292c5.4,1.776,14.875,10.991,16,17-6.685,2.739-8.4,11.234-16,13-1.923-2.751-13.743-12.441-14-13C122.8,306.392,136.249,294.56,138,292Zm295,0c5.277,1.766,14.818,11.175,16,17-7.228,2.569-9.47,10.835-16,14-2-2.869-15.007-13.746-14-17ZM157,310c5.055,3.234,13.924,11.052,16,17-7.228,2.569-9.47,10.835-16,14-3.947-5.832-13.072-9.792-15-17C147.445,322.157,154.054,314.557,157,310Zm257,0c5.4,1.776,14.875,10.991,16,17-5.792,3.882-9.1,11.524-16,14-2.707-7.482-11.882-9.3-14-17C404.947,322.367,412.328,314.921,414,310ZM175,329c5.328,1.775,14.186,10.7,16,16-5.792,3.882-9.1,11.524-16,14-1.768-2.538-14.493-13.943-14-16Zm221,0c5.4,1.776,14.875,10.991,16,17-7.09,2.526-8.932,10.414-16,13-1.768-2.538-14.493-13.943-14-16ZM193,347c5.4,1.776,14.875,10.991,16,17l-14,14-1-1c-4.472-2.825-13.587-10.475-15-16C183.947,359.367,191.328,351.921,193,347Zm185,0c5.055,3.234,13.924,11.052,16,17-5.445,1.843-12.054,9.443-15,14l-1-1-9-9C358.83,357.772,371.065,357.02,378,347ZM211,366h3c3.882,5.792,11.524,9.1,14,16-5.792,3.882-9.1,11.524-16,14-3.882-5.792-11.524-9.1-14-16h1C201.152,374.135,207.758,371.237,211,366Zm148,0c5.328,1.775,14.186,10.7,16,16-5.792,3.882-9.1,11.524-16,14-1.768-2.538-14.493-13.943-14-16ZM230,384c5.4,1.776,14.875,10.991,16,17l-14,14-1-1c-2-1.242-15.5-14.17-15-16Zm111,0c4.678,2.962,14.524,11.249,16,17-5.445,1.843-12.054,9.443-15,14l-1-1-8-8C321.558,394.469,333.879,394.316,341,384Zm-93,19h3c3.882,5.792,11.524,9.1,14,16-3.091,2.01-13.1,13.677-14,14-0.715.258-17.561-14.646-17-16Zm74,0c5.525,1.781,14.58,10.271,16,16-5.792,3.882-9.1,11.524-16,14-1.768-2.538-14.493-13.943-14-16Zm-55,18c5.328,1.775,14.186,10.7,16,16l-15,15v-1c-1.988-1.236-15.429-14.235-15-16Zm37,0c5.328,1.775,14.186,10.7,16,16-5.866,3.968-9.184,12.4-17,14l-13-13C289.019,434.588,301.961,423.983,304,421Zm-19,19h3c3.768,5.564,11.474,8.53,13,16l-14,14-1-1c-1.737-1.076-15.081-14.61-15-15Z"/>
  <path id="Заливка_цветом_7" data-name="Заливка цветом 7" class="cls-2" d="M326,85c12.762-.163,25.364-0.978,36,2,42.387,11.867,92.308,58.686,79,118-2.482,11.062-1.8,18.918-6,28-7.325,15.838-19.725,30.8-32,42-25.671,23.414-82.864,29.378-116,9-4.3-2.642-9-3.15-12-7l-3,1c-1.134,2.075-4.538,4.023-5,6-0.549,2.349,1.191,4.17-1,7-1.249,1.614-4.383,2.644-6,4-4,3.353-6.5,8.1-10,12-4.646,5.17-11.245,8.884-16,14-21.566,23.206-44.476,44.768-67,67-7.214,7.121-28.362,33.845-38,35-7.663,4.363-21.761-15.7-26-20v-6c35.093-35.92,69.5-72.493,105-108,7-7,15-13,22-20l8-9c6.847-3.339,10.079.122,12-9-9.427-6.68-12.45-21.246-16-34-15.623-56.129,17.512-99.563,51-120,7.777-4.746,18.848-7.333,28-10C317.249,85.762,322.7,87.047,326,85Zm-6,7c-3.579,2.255-8.6,1.517-13,3a137.372,137.372,0,0,0-19,8c-22.449,11.865-38.835,34.786-48,60-6.539,17.988-2.422,45.536,3,60,12.6,33.606,33.577,53.522,68,65,7.426,2.476,14.285.207,23,2,5.689,1.171,16.851.992,24-1,36.181-10.08,57.272-31.031,71-64,4.99-11.985,10.665-33.817,6-52-2.522-9.832-5.5-20.364-10-29-13.761-26.433-39.251-44.428-72-52H320Zm11,3,24,1c49.877,12.866,98,67.053,70,133-9.547,22.489-30.519,43.623-54,52-9.576,3.416-20.6,3.778-31,6-16.153,3.45-38.879-7.083-48-12-34.775-18.747-66.081-64.323-46-118,9.539-25.5,30.481-45.383,55-56C307.6,98.142,326.176,97.933,331,95Zm-9,7c-7.357,4.651-20.079,4.8-28,9-20.625,10.938-38.079,33.417-45,58-14.687,52.164,24.573,93.574,58,106,10.361,3.851,35.311,9.366,50,4,25.591-9.348,49.021-24.308,60-48,29.473-63.6-14.392-116.79-67-129H322Zm17,19v4h-2c-5.074,3.1-16.991,1.545-23,4-11.9,4.859-23.225,14.722-31,24-6.163,7.354-8.756,19.344-11,28-1.612,6.219,1.96,10.216-3,13-1.545.707-.135,0.129-3,0-0.631-1.754-.193-0.971-1-2,2.094-11.873,2.2-23.451,7-33C282.259,138.6,308.3,117.387,339,121ZM253,259c-1.556,2.389-2.923,2.924-4,6,5.387,3.8,8.2,10.583,15,13v-1c2.271-1.47,3.009-2.1,4-5C262.531,268.32,259.624,261.369,253,259Zm-13,8a9.257,9.257,0,0,1-3,4l1,1c3.556,4.293,13.861,16.293,20,17,0.961-1.766,1.257-1.68,2-4C252.886,280.2,248.433,270.028,240,267ZM111,397a14.124,14.124,0,0,0-1,4c5.516,5.376,10.1,15.4,20,16v-2Z"/>
</svg>
