<svg xmlns="http://www.w3.org/2000/svg" width="123" height="456" viewBox="0 0 123 456">
  <defs>
    <style>
      .cls-1 {
        fill: #ba131d;
        fill-rule: evenodd;
      }
    </style>
  </defs>
  <path id="Заливка_цветом_12" data-name="Заливка цветом 12" class="cls-1" d="M214,33H316V138l-27,27H214V33Zm7,8V157h64V134h23V41H221Zm72,101v9h1l8-8v-1h-9Zm32,176h-8c0.57-69.1-107.551-69.121-107,0h-8c0.008-32,20.533-48.846,44-58v-1c-22.3-14.12-13.077-75.443,23-65,14.486,4.193,27.3,27.094,20,49-2.208,6.626-7.7,10.9-10,17C304.578,263.176,324.9,289.18,325,318ZM259,201c-5.768,4.27-11.96,6.068-15,13-7.536,17.185-.076,40.183,15,44,25.123,6.361,31.968-47.014,11-54C267.424,201.561,264.131,201.01,259,201ZM205,355h95v7H212V466h-7V355Zm11,11h95v7H223V477h-7V366Zm12,12h95V489H228V378Zm7,7v96h81V385H235Z" transform="translate(-202 -33)"/>
</svg>
